<?xml version="1.0" encoding="utf-8"?>
<!-- Generator: Adobe Illustrator 16.0.0, SVG Export Plug-In . SVG Version: 6.00 Build 0)  -->
<!DOCTYPE svg PUBLIC "-//W3C//DTD SVG 1.1//EN" "http://www.w3.org/Graphics/SVG/1.1/DTD/svg11.dtd">
<svg version="1.1" xmlns="http://www.w3.org/2000/svg" xmlns:xlink="http://www.w3.org/1999/xlink" x="0px" y="0px" width="1920px"
	 height="1080px" viewBox="0 0 1920 1080" enable-background="new 0 0 1920 1080" xml:space="preserve">
<g id="Layer_3_1_" display="none">
	<g id="Layer_3" display="inline">
		<g id="Layer_2_1_">
			<g id="Layer_2">
				<rect x="-6.001" fill="#231F20" width="1926.001" height="1080"/>
			</g>
		</g>
	</g>
</g>
<g id="Layer_1" display="none">
	<g display="inline">
		<g>
			<path fill="#AAAAAA" d="M1068.351,300.617v10.254h-2.051v-24.883h7.827c1.094,0.021,2.116,0.205,3.067,0.547
				c0.946,0.342,1.778,0.829,2.495,1.461c0.712,0.633,1.271,1.399,1.684,2.299c0.41,0.9,0.615,1.92,0.615,3.059
				c0,1.14-0.205,2.157-0.615,3.051c-0.41,0.894-0.973,1.647-1.684,2.271c-0.717,0.621-1.551,1.102-2.508,1.43
				c-0.957,0.329-1.978,0.504-3.06,0.515L1068.351,300.617L1068.351,300.617z M1068.351,298.891h5.776
				c0.82-0.011,1.583-0.146,2.29-0.41c0.706-0.262,1.321-0.625,1.846-1.094c0.523-0.467,0.938-1.036,1.239-1.709
				c0.302-0.672,0.452-1.436,0.452-2.289c0-0.855-0.147-1.63-0.443-2.324c-0.297-0.695-0.707-1.285-1.229-1.77
				c-0.524-0.483-1.145-0.859-1.85-1.128c-0.707-0.268-1.478-0.412-2.309-0.436h-5.775L1068.351,298.891L1068.351,298.891z"/>
			<path fill="#AAAAAA" d="M1086.725,301.352c0.017-1.253,0.205-2.438,0.582-3.566c0.375-1.128,0.914-2.116,1.614-2.965
				c0.701-0.849,1.562-1.523,2.581-2.025c1.021-0.501,2.173-0.752,3.461-0.752c1.299,0,2.457,0.251,3.479,0.752
				c1.02,0.502,1.882,1.177,2.589,2.025c0.706,0.849,1.248,1.837,1.623,2.965c0.377,1.128,0.568,2.313,0.582,3.566v0.564
				c-0.012,1.254-0.203,2.443-0.573,3.572c-0.37,1.127-0.908,2.111-1.614,2.965c-0.707,0.849-1.562,1.521-2.581,2.017
				c-1.015,0.495-2.171,0.743-3.47,0.743s-2.458-0.248-3.478-0.743c-1.021-0.496-1.888-1.168-2.591-2.017
				c-0.707-0.854-1.248-1.838-1.623-2.965c-0.377-1.129-0.568-2.318-0.582-3.572V301.352L1086.725,301.352z M1088.775,301.916
				c0,0.98,0.137,1.926,0.41,2.837c0.271,0.912,0.673,1.718,1.192,2.418c0.523,0.701,1.17,1.263,1.939,1.685
				c0.769,0.426,1.657,0.636,2.674,0.636c1.003,0,1.889-0.21,2.655-0.636c0.771-0.422,1.41-0.979,1.934-1.685
				c0.521-0.7,0.915-1.506,1.188-2.418c0.272-0.911,0.409-1.856,0.409-2.837v-0.564c0-0.968-0.137-1.902-0.409-2.814
				c-0.271-0.911-0.674-1.718-1.193-2.418c-0.523-0.701-1.174-1.265-1.947-1.692c-0.775-0.427-1.664-0.641-2.666-0.641
				c-1.003,0-1.889,0.214-2.658,0.641c-0.769,0.428-1.413,0.991-1.931,1.692c-0.521,0.7-0.915,1.507-1.188,2.418
				c-0.271,0.912-0.407,1.852-0.407,2.814L1088.775,301.916L1088.775,301.916z"/>
			<path fill="#AAAAAA" d="M1110.143,292.38h8.578v16.68h6.289v1.812h-14.867v-1.812h6.527v-14.851h-6.527V292.38z
				 M1116.072,287.321c0-0.421,0.119-0.786,0.354-1.094c0.238-0.308,0.643-0.462,1.195-0.462c0.547,0,0.942,0.154,1.188,0.462
				c0.242,0.308,0.365,0.673,0.365,1.094c0,0.396-0.123,0.749-0.365,1.051c-0.243,0.303-0.644,0.453-1.188,0.453
				c-0.56,0-0.957-0.15-1.195-0.453C1116.191,288.07,1116.072,287.721,1116.072,287.321z"/>
			<path fill="#AAAAAA" d="M1133.422,292.38l0.154,3.47c0.646-1.151,1.515-2.071,2.598-2.761c1.082-0.688,2.312-1.039,3.691-1.051
				c2.027,0,3.577,0.606,4.646,1.82c1.07,1.213,1.612,2.937,1.623,5.169v11.844h-2.051v-11.809c-0.011-1.698-0.396-3-1.162-3.905
				c-0.763-0.906-1.942-1.353-3.555-1.342c-0.66,0-1.29,0.108-1.888,0.325c-0.604,0.216-1.146,0.512-1.646,0.889
				c-0.496,0.375-0.935,0.82-1.312,1.332c-0.387,0.514-0.692,1.071-0.936,1.676v12.834h-2.051V292.38H1133.422z"/>
			<path fill="#AAAAAA" d="M1160.24,287.646v4.733h6.854v1.675h-6.854v11.644c0.011,0.717,0.122,1.312,0.333,1.781
				c0.211,0.477,0.496,0.854,0.854,1.146c0.359,0.29,0.78,0.498,1.27,0.624c0.479,0.125,1.011,0.188,1.581,0.188
				c0.564,0,1.148-0.038,1.752-0.116c0.598-0.08,1.104-0.16,1.524-0.24l0.312,1.556c-0.49,0.194-1.088,0.339-1.794,0.438
				c-0.707,0.097-1.429,0.146-2.154,0.146c-0.82,0-1.578-0.1-2.271-0.299c-0.693-0.199-1.302-0.52-1.812-0.957
				c-0.512-0.437-0.917-1.009-1.213-1.709c-0.297-0.701-0.451-1.558-0.462-2.572V294.06h-5.146v-1.675h5.146v-4.733h2.085v-0.006
				H1160.24z"/>
			<path fill="#AAAAAA" d="M1182.256,307.111l0.376,1.008l6.683-15.739h2.324l-9.554,21.448c-0.251,0.558-0.547,1.104-0.889,1.641
				c-0.347,0.535-0.746,1.021-1.214,1.443c-0.472,0.428-1.01,0.771-1.614,1.034c-0.61,0.262-1.312,0.394-2.095,0.394
				c-0.272,0-0.574-0.025-0.904-0.077c-0.331-0.052-0.61-0.104-0.838-0.163l0.234-1.709c0.193,0.023,0.438,0.049,0.729,0.077
				c0.29,0.028,0.53,0.043,0.726,0.043c0.524,0,1.003-0.103,1.438-0.308c0.434-0.205,0.812-0.471,1.149-0.795
				c0.338-0.324,0.635-0.689,0.894-1.094c0.256-0.404,0.47-0.806,0.641-1.188l1.267-2.734l-8.308-18.013h2.312L1182.256,307.111z"/>
		</g>
	</g>
	<g display="inline">
		<g>
			<path fill="#AAAAAA" d="M1074.264,363.768h-6.147v10.408h-2.021v-24.883h7.023c1.094,0.023,2.125,0.199,3.094,0.529
				c0.968,0.331,1.813,0.807,2.538,1.428c0.723,0.621,1.293,1.382,1.709,2.281c0.415,0.896,0.624,1.932,0.624,3.094
				c0,0.831-0.123,1.589-0.368,2.272c-0.245,0.683-0.584,1.302-1.017,1.854c-0.438,0.553-0.948,1.04-1.548,1.461
				c-0.602,0.422-1.259,0.78-1.978,1.076l5.674,10.664v0.223h-2.136L1074.264,363.768z M1068.111,362.042h5.417
				c0.771-0.022,1.498-0.171,2.171-0.444c0.672-0.271,1.256-0.646,1.752-1.119c0.495-0.473,0.883-1.035,1.162-1.696
				c0.273-0.66,0.419-1.389,0.419-2.17c0-0.877-0.154-1.658-0.462-2.347c-0.312-0.684-0.729-1.261-1.261-1.729
				c-0.525-0.478-1.153-0.834-1.88-1.085c-0.724-0.25-1.502-0.392-2.333-0.41h-4.988L1068.111,362.042L1068.111,362.042z"/>
			<path fill="#AAAAAA" d="M1086.725,364.656c0.017-1.253,0.205-2.443,0.582-3.571c0.375-1.128,0.914-2.116,1.614-2.965
				c0.701-0.849,1.562-1.523,2.581-2.025c1.021-0.501,2.173-0.752,3.461-0.752c1.299,0,2.457,0.251,3.479,0.752
				c1.02,0.502,1.882,1.182,2.589,2.025c0.706,0.849,1.248,1.837,1.623,2.965c0.377,1.128,0.568,2.318,0.582,3.571v0.562
				c-0.012,1.254-0.203,2.443-0.573,3.572c-0.37,1.127-0.908,2.116-1.614,2.965c-0.707,0.854-1.562,1.521-2.581,2.021
				c-1.015,0.49-2.171,0.738-3.47,0.738s-2.458-0.248-3.478-0.738c-1.021-0.496-1.888-1.168-2.591-2.021
				c-0.707-0.849-1.248-1.838-1.623-2.965c-0.377-1.129-0.568-2.318-0.582-3.572V364.656L1086.725,364.656z M1088.775,365.221
				c0,0.98,0.137,1.931,0.41,2.837c0.271,0.912,0.673,1.723,1.192,2.418c0.523,0.701,1.17,1.268,1.939,1.688
				c0.769,0.422,1.657,0.632,2.674,0.632c1.003,0,1.889-0.21,2.655-0.632c0.771-0.421,1.41-0.982,1.934-1.688
				c0.521-0.695,0.915-1.506,1.188-2.418c0.272-0.906,0.409-1.854,0.409-2.837v-0.562c0-0.968-0.137-1.907-0.409-2.819
				c-0.271-0.911-0.674-1.718-1.193-2.418c-0.523-0.701-1.174-1.265-1.947-1.688c-0.775-0.432-1.664-0.646-2.666-0.646
				c-1.003,0-1.889,0.214-2.658,0.646c-0.769,0.428-1.413,0.986-1.931,1.688c-0.521,0.7-0.915,1.507-1.188,2.418
				c-0.271,0.912-0.407,1.854-0.407,2.819L1088.775,365.221L1088.775,365.221z"/>
			<path fill="#AAAAAA" d="M1122.07,371.287c-0.615,1.015-1.432,1.807-2.438,2.376c-1.009,0.569-2.202,0.854-3.581,0.854
				c-1.021,0-1.928-0.165-2.708-0.491c-0.781-0.33-1.436-0.813-1.966-1.452c-0.529-0.643-0.938-1.419-1.213-2.345
				c-0.279-0.925-0.419-1.978-0.419-3.158v-11.387h2.034V367.1c0.021,1.857,0.396,3.27,1.127,4.227
				c0.729,0.957,1.854,1.436,3.385,1.436c1.537,0,2.785-0.354,3.742-1.061c0.957-0.706,1.623-1.663,2-2.871l-0.021-13.146h2.068
				v18.491h-1.914L1122.07,371.287z"/>
			<path fill="#AAAAAA" d="M1133.422,355.685l0.154,3.475c0.646-1.151,1.515-2.071,2.598-2.766c1.082-0.688,2.312-1.034,3.691-1.051
				c2.027,0,3.577,0.606,4.646,1.82c1.07,1.213,1.612,2.937,1.623,5.169v11.844h-2.051v-11.809c-0.011-1.698-0.396-3-1.162-3.905
				c-0.763-0.906-1.942-1.353-3.555-1.342c-0.66,0-1.29,0.105-1.888,0.325c-0.604,0.216-1.146,0.512-1.646,0.889
				c-0.496,0.375-0.935,0.82-1.312,1.332c-0.387,0.514-0.692,1.071-0.936,1.676v12.834h-2.051v-18.491H1133.422L1133.422,355.685z"
				/>
			<path fill="#AAAAAA" d="M1152.807,364.76c0-1.229,0.153-2.413,0.461-3.547c0.312-1.133,0.771-2.136,1.377-3.008
				c0.608-0.871,1.371-1.566,2.289-2.085c0.918-0.521,1.996-0.777,3.238-0.777c1.173,0,2.229,0.251,3.153,0.752
				c0.928,0.502,1.706,1.202,2.333,2.104v-10.271h2.033v26.25h-1.914l-0.086-2.41c-0.648,0.894-1.446,1.57-2.396,2.043
				c-0.944,0.478-1.999,0.714-3.161,0.714c-1.22,0-2.287-0.27-3.203-0.8c-0.918-0.524-1.682-1.229-2.291-2.102
				c-0.605-0.873-1.063-1.874-1.375-3.008c-0.309-1.134-0.462-2.299-0.462-3.495L1152.807,364.76L1152.807,364.76z
				 M1154.874,365.118c0,0.923,0.1,1.84,0.299,2.751c0.199,0.912,0.521,1.729,0.966,2.453c0.445,0.724,1.025,1.307,1.743,1.752
				c0.718,0.438,1.595,0.666,2.632,0.666c0.581,0,1.131-0.074,1.649-0.228c0.518-0.146,0.996-0.356,1.436-0.641
				c0.438-0.278,0.831-0.615,1.184-1.008c0.348-0.396,0.641-0.835,0.881-1.324v-8.955c-0.229-0.514-0.511-0.979-0.851-1.397
				c-0.337-0.426-0.722-0.785-1.149-1.099c-0.438-0.307-0.912-0.547-1.438-0.717c-0.521-0.172-1.083-0.257-1.675-0.257
				c-1.049,0-1.931,0.226-2.647,0.675c-0.719,0.45-1.304,1.037-1.75,1.761c-0.448,0.729-0.773,1.541-0.978,2.452
				c-0.199,0.912-0.299,1.828-0.299,2.752L1154.874,365.118L1154.874,365.118z"/>
		</g>
	</g>
	<g display="inline">
		<g>
			<path fill="#AAAAAA" d="M985.342,715.438v10.258h-2.051v-24.888h7.828c1.094,0.023,2.115,0.205,3.062,0.552
				c0.951,0.342,1.783,0.824,2.496,1.461c0.711,0.633,1.273,1.396,1.688,2.299c0.41,0.896,0.615,1.92,0.615,3.059
				c0,1.145-0.205,2.157-0.615,3.055c-0.41,0.896-0.978,1.648-1.688,2.271c-0.713,0.621-1.547,1.097-2.504,1.427
				c-0.957,0.331-1.977,0.502-3.059,0.518L985.342,715.438L985.342,715.438z M985.342,713.71h5.777
				c0.82-0.011,1.582-0.146,2.289-0.41c0.707-0.262,1.322-0.626,1.846-1.094c0.523-0.467,0.938-1.036,1.24-1.709
				c0.301-0.672,0.451-1.436,0.451-2.289c0-0.853-0.146-1.63-0.443-2.324c-0.297-0.69-0.707-1.284-1.23-1.77
				c-0.521-0.483-1.139-0.859-1.846-1.128c-0.707-0.271-1.477-0.412-2.307-0.438h-5.777V713.71z"/>
			<path fill="#AAAAAA" d="M1017.014,706.857c0.517,0,1.025,0.026,1.537,0.094c0.514,0.062,0.939,0.146,1.281,0.265l-0.256,1.966
				c-0.479-0.103-0.957-0.182-1.438-0.234c-0.479-0.062-0.969-0.086-1.469-0.086c-1.729,0-3.203,0.405-4.41,1.229
				s-2.057,2.08-2.547,3.777l0.021,11.825h-2.119V707.2h1.965l0.137,3.213v0.376c0.752-1.219,1.75-2.179,2.992-2.88
				C1013.947,707.208,1015.383,706.857,1017.014,706.857z"/>
			<path fill="#AAAAAA" d="M1034.551,726.032c-1.287,0-2.461-0.239-3.52-0.718c-1.062-0.479-1.969-1.133-2.729-1.948
				c-0.758-0.82-1.346-1.78-1.76-2.88c-0.416-1.104-0.631-2.271-0.641-3.517v-0.73c0.01-1.321,0.229-2.557,0.651-3.691
				c0.433-1.139,1.017-2.13,1.752-2.973c0.74-0.845,1.613-1.507,2.615-1.991s2.078-0.727,3.229-0.727
				c1.229,0,2.315,0.222,3.266,0.666c0.943,0.439,1.74,1.052,2.385,1.815c0.646,0.771,1.133,1.667,1.469,2.692
				c0.34,1.021,0.515,2.125,0.521,3.298v1.247h-13.842v0.394c0.01,0.974,0.176,1.896,0.492,2.777
				c0.315,0.882,0.771,1.66,1.354,2.333c0.58,0.672,1.281,1.21,2.104,1.614c0.816,0.4,1.729,0.604,2.73,0.604
				c1.142,0.013,2.17-0.198,3.094-0.632c0.926-0.434,1.709-1.062,2.357-1.88l1.299,0.975c-0.342,0.479-0.746,0.92-1.213,1.324
				c-0.469,0.404-0.988,0.749-1.562,1.033c-0.576,0.284-1.205,0.508-1.892,0.667C1036.035,725.95,1035.314,726.032,1034.551,726.032
				z M1034.158,708.601c-0.832,0-1.596,0.157-2.291,0.475c-0.695,0.312-1.31,0.75-1.828,1.308c-0.523,0.562-0.957,1.217-1.299,1.977
				s-0.576,1.588-0.701,2.484h11.707v-0.223c-0.023-0.768-0.162-1.507-0.418-2.23c-0.258-0.723-0.621-1.359-1.094-1.922
				c-0.479-0.559-1.056-1.009-1.734-1.351C1035.817,708.771,1035.035,708.601,1034.158,708.601z"/>
			<path fill="#AAAAAA" d="M1055.627,722.922l0.086,0.358l0.104-0.358l6.354-15.723h2.137l-7.771,18.491h-1.676l-7.793-18.491h2.137
				L1055.627,722.922z"/>
			<path fill="#AAAAAA" d="M1070.891,707.199h8.578v16.68h6.289v1.812h-14.867v-1.812h6.527v-14.851h-6.527V707.199z
				 M1076.82,702.141c0-0.421,0.119-0.781,0.354-1.094c0.238-0.308,0.644-0.462,1.195-0.462c0.547,0,0.938,0.154,1.188,0.462
				c0.244,0.312,0.367,0.673,0.367,1.094c0,0.399-0.123,0.749-0.367,1.056c-0.245,0.303-0.643,0.448-1.188,0.448
				c-0.562,0-0.957-0.146-1.195-0.448C1076.939,702.89,1076.82,702.54,1076.82,702.141z"/>
			<path fill="#AAAAAA" d="M1100.186,726.032c-1.282,0-2.461-0.239-3.52-0.718c-1.061-0.479-1.969-1.133-2.727-1.948
				c-0.763-0.82-1.351-1.78-1.765-2.88c-0.416-1.104-0.631-2.271-0.641-3.517v-0.73c0.01-1.321,0.229-2.557,0.655-3.691
				c0.429-1.139,1.013-2.13,1.752-2.973c0.736-0.845,1.609-1.507,2.611-1.991s2.078-0.727,3.23-0.727
				c1.229,0,2.317,0.222,3.264,0.666c0.945,0.439,1.74,1.052,2.385,1.815c0.646,0.771,1.137,1.667,1.474,2.692
				c0.336,1.021,0.51,2.125,0.521,3.298v1.247h-13.842v0.394c0.01,0.974,0.176,1.896,0.494,2.777
				c0.315,0.881,0.771,1.66,1.353,2.333c0.579,0.672,1.28,1.21,2.104,1.614c0.818,0.4,1.729,0.604,2.732,0.604
				c1.141,0.013,2.172-0.198,3.096-0.632c0.922-0.434,1.709-1.062,2.354-1.88l1.299,0.975c-0.342,0.479-0.743,0.92-1.213,1.324
				c-0.469,0.404-0.984,0.749-1.562,1.033c-0.576,0.284-1.205,0.508-1.893,0.667C1101.67,725.95,1100.949,726.032,1100.186,726.032z
				 M1099.793,708.601c-0.832,0-1.596,0.157-2.291,0.475c-0.695,0.312-1.305,0.75-1.828,1.308c-0.521,0.562-0.957,1.217-1.299,1.977
				s-0.576,1.588-0.701,2.484h11.707v-0.223c-0.021-0.768-0.162-1.507-0.418-2.23c-0.258-0.723-0.621-1.359-1.094-1.922
				c-0.475-0.559-1.051-1.009-1.734-1.351C1101.452,708.771,1100.67,708.601,1099.793,708.601z"/>
			<path fill="#AAAAAA" d="M1116.408,719.692l0.547,3.276l0.684-3.276l3.127-12.493h1.438l3.127,12.493l0.684,3.361l0.604-3.361
				l2.524-12.493h1.896l-4.104,18.491h-1.658l-3.264-12.646l-0.547-2.957l-0.547,2.957l-3.23,12.646h-1.653l-4.104-18.491h1.898
				L1116.408,719.692z"/>
		</g>
	</g>
	<g display="inline">
		<g>
			<path fill="#AAAAAA" d="M170.42,296.942c0-0.581-0.089-1.103-0.265-1.563c-0.177-0.462-0.422-0.874-0.735-1.239
				c-0.313-0.364-0.675-0.687-1.085-0.966c-0.41-0.278-0.849-0.526-1.316-0.743c-0.467-0.216-0.945-0.41-1.436-0.581
				c-0.489-0.171-0.963-0.33-1.418-0.479c-0.581-0.182-1.171-0.385-1.769-0.606c-0.599-0.223-1.18-0.479-1.743-0.77
				c-0.564-0.29-1.094-0.62-1.59-0.991c-0.495-0.37-0.929-0.788-1.299-1.256c-0.37-0.467-0.661-0.988-0.871-1.563
				c-0.211-0.575-0.316-1.216-0.316-1.923c0-1.036,0.23-1.954,0.692-2.752c0.461-0.797,1.062-1.469,1.803-2.016
				c0.74-0.547,1.575-0.96,2.504-1.239c0.928-0.279,1.865-0.419,2.812-0.419c1.059,0,2.067,0.174,3.024,0.521
				s1.797,0.835,2.521,1.461c0.724,0.627,1.302,1.388,1.734,2.281c0.434,0.895,0.667,1.889,0.701,2.982H170.3
				c-0.091-0.809-0.29-1.547-0.598-2.213c-0.308-0.667-0.718-1.239-1.23-1.718c-0.512-0.479-1.114-0.852-1.803-1.119
				c-0.689-0.271-1.45-0.401-2.281-0.401c-0.695,0-1.382,0.094-2.06,0.281c-0.679,0.188-1.288,0.474-1.829,0.854
				c-0.541,0.382-0.979,0.86-1.315,1.436c-0.337,0.576-0.505,1.251-0.505,2.025c0,0.832,0.197,1.538,0.59,2.119
				c0.394,0.581,0.892,1.071,1.496,1.47s1.267,0.732,1.99,1c0.723,0.268,1.41,0.498,2.06,0.691c0.604,0.183,1.214,0.391,1.829,0.624
				c0.615,0.234,1.21,0.505,1.785,0.812c0.575,0.309,1.113,0.653,1.615,1.034c0.501,0.382,0.937,0.818,1.308,1.308
				c0.37,0.49,0.66,1.034,0.871,1.632c0.211,0.599,0.316,1.263,0.316,1.991c0,1.094-0.236,2.045-0.709,2.854
				c-0.474,0.812-1.085,1.484-1.837,2.025c-0.752,0.542-1.607,0.946-2.564,1.214c-0.957,0.268-1.925,0.401-2.904,0.401
				c-1.094,0-2.154-0.16-3.18-0.479c-1.026-0.319-1.938-0.786-2.742-1.4c-0.804-0.611-1.456-1.377-1.957-2.277
				c-0.502-0.906-0.77-1.94-0.803-3.104h2.067c0.103,0.889,0.339,1.682,0.709,2.367c0.37,0.689,0.847,1.267,1.427,1.729
				c0.582,0.463,1.254,0.811,2.018,1.043c0.763,0.23,1.583,0.352,2.461,0.352c0.729,0,1.443-0.091,2.145-0.273
				c0.7-0.182,1.33-0.464,1.889-0.846c0.558-0.382,1.008-0.866,1.35-1.453C170.249,298.467,170.42,297.763,170.42,296.942z"/>
			<path fill="#AAAAAA" d="M193.631,294.003c0,1.196-0.146,2.361-0.436,3.495c-0.291,1.134-0.735,2.136-1.333,3.008
				c-0.599,0.871-1.354,1.572-2.265,2.104c-0.912,0.525-1.994,0.795-3.247,0.795c-1.151,0-2.204-0.228-3.161-0.666
				c-0.957-0.445-1.761-1.088-2.41-1.937v9.365h-2.051v-25.601h1.914l0.086,2.529c0.648-0.911,1.446-1.617,2.393-2.119
				c0.945-0.501,2.01-0.752,3.195-0.752c1.265,0,2.358,0.26,3.281,0.777c0.923,0.519,1.681,1.214,2.273,2.085
				c0.592,0.872,1.033,1.875,1.324,3.008c0.29,1.134,0.436,2.316,0.436,3.547L193.631,294.003L193.631,294.003z M191.58,293.645
				c0-0.924-0.103-1.84-0.308-2.752c-0.205-0.911-0.536-1.729-0.991-2.452c-0.456-0.724-1.046-1.311-1.769-1.761
				c-0.724-0.449-1.609-0.675-2.657-0.675c-0.593,0-1.148,0.083-1.667,0.248s-0.991,0.398-1.418,0.7
				c-0.428,0.303-0.81,0.661-1.146,1.077c-0.336,0.416-0.618,0.874-0.846,1.376v9.16c0.479,0.957,1.162,1.715,2.051,2.271
				c0.889,0.56,1.908,0.837,3.059,0.837c1.037,0,1.917-0.228,2.641-0.684c0.724-0.455,1.311-1.045,1.761-1.771
				c0.449-0.723,0.777-1.543,0.982-2.461c0.205-0.917,0.308-1.837,0.308-2.76V293.645z"/>
			<path fill="#AAAAAA" d="M208.451,303.402c-1.287,0-2.461-0.239-3.52-0.723c-1.061-0.479-1.969-1.128-2.727-1.943
				c-0.758-0.82-1.345-1.78-1.76-2.881c-0.416-1.103-0.63-2.271-0.641-3.516v-0.735c0.011-1.321,0.23-2.552,0.657-3.691
				c0.428-1.139,1.011-2.13,1.752-2.973c0.74-0.844,1.612-1.507,2.614-1.991c1.003-0.484,2.079-0.727,3.23-0.727
				c1.23,0,2.318,0.222,3.264,0.667c0.946,0.443,1.74,1.051,2.385,1.819c0.644,0.77,1.133,1.667,1.47,2.692
				c0.336,1.025,0.51,2.125,0.521,3.298v1.247h-13.842v0.394c0.011,0.969,0.176,1.896,0.495,2.777
				c0.318,0.883,0.769,1.66,1.351,2.333c0.58,0.672,1.281,1.21,2.102,1.614c0.82,0.4,1.731,0.604,2.734,0.604
				c1.139,0.012,2.17-0.197,3.094-0.632c0.922-0.435,1.709-1.062,2.357-1.88l1.299,0.975c-0.342,0.479-0.746,0.92-1.213,1.324
				c-0.468,0.404-0.988,0.749-1.563,1.033c-0.576,0.285-1.205,0.508-1.889,0.667C209.937,303.32,209.215,303.402,208.451,303.402z
				 M208.059,285.971c-0.832,0-1.596,0.157-2.29,0.47c-0.695,0.313-1.305,0.75-1.829,1.308c-0.523,0.559-0.957,1.217-1.299,1.974
				c-0.342,0.758-0.575,1.587-0.7,2.487h11.706v-0.223c-0.022-0.763-0.162-1.507-0.418-2.23c-0.257-0.723-0.621-1.364-1.094-1.922
				c-0.474-0.559-1.051-1.009-1.734-1.351C209.718,286.142,208.936,285.971,208.059,285.971z"/>
			<path fill="#AAAAAA" d="M230.33,303.402c-1.287,0-2.461-0.239-3.52-0.723c-1.061-0.479-1.969-1.128-2.727-1.943
				c-0.758-0.82-1.345-1.78-1.76-2.881c-0.416-1.103-0.63-2.271-0.641-3.516v-0.735c0.011-1.321,0.23-2.552,0.657-3.691
				c0.428-1.139,1.011-2.13,1.752-2.973c0.74-0.844,1.612-1.507,2.614-1.991c1.003-0.484,2.079-0.727,3.23-0.727
				c1.23,0,2.318,0.222,3.264,0.667c0.946,0.443,1.74,1.051,2.385,1.819c0.644,0.77,1.133,1.667,1.47,2.692
				c0.336,1.025,0.51,2.125,0.521,3.298v1.247h-13.842v0.394c0.011,0.969,0.176,1.896,0.495,2.777
				c0.318,0.883,0.769,1.66,1.351,2.333c0.58,0.672,1.281,1.21,2.102,1.614c0.82,0.4,1.731,0.604,2.734,0.604
				c1.139,0.012,2.17-0.197,3.094-0.632c0.922-0.435,1.709-1.062,2.357-1.88l1.299,0.975c-0.342,0.479-0.746,0.92-1.213,1.324
				c-0.468,0.404-0.988,0.749-1.563,1.033c-0.576,0.285-1.205,0.508-1.889,0.667S231.094,303.402,230.33,303.402z M229.938,285.971
				c-0.832,0-1.596,0.157-2.29,0.47c-0.695,0.313-1.305,0.75-1.829,1.308c-0.523,0.559-0.957,1.217-1.299,1.974
				c-0.342,0.758-0.575,1.587-0.7,2.487h11.706v-0.223c-0.022-0.763-0.162-1.507-0.418-2.23c-0.257-0.723-0.621-1.364-1.094-1.922
				c-0.474-0.559-1.051-1.009-1.734-1.351C231.597,286.142,230.814,285.971,229.938,285.971z"/>
			<path fill="#AAAAAA" d="M243.699,293.645c0-1.23,0.153-2.413,0.461-3.547c0.308-1.133,0.766-2.136,1.376-3.008
				c0.609-0.871,1.372-1.566,2.29-2.085c0.917-0.518,1.996-0.777,3.238-0.777c1.173,0,2.225,0.251,3.153,0.752
				c0.928,0.502,1.706,1.202,2.333,2.103v-10.271h2.033v26.25h-1.914l-0.086-2.41c-0.648,0.889-1.446,1.565-2.393,2.043
				c-0.945,0.473-1.999,0.709-3.161,0.709c-1.22,0-2.287-0.27-3.204-0.795c-0.918-0.529-1.681-1.23-2.29-2.104
				c-0.61-0.872-1.068-1.874-1.376-3.008c-0.308-1.134-0.461-2.299-0.461-3.495L243.699,293.645L243.699,293.645z M245.767,294.003
				c0,0.923,0.1,1.84,0.299,2.751c0.199,0.912,0.521,1.729,0.966,2.453c0.445,0.724,1.025,1.307,1.743,1.752
				c0.718,0.443,1.595,0.666,2.632,0.666c0.581,0,1.131-0.074,1.649-0.223c0.518-0.147,0.996-0.361,1.436-0.646
				c0.438-0.273,0.831-0.61,1.179-1.008c0.348-0.396,0.641-0.835,0.881-1.324v-8.955c-0.229-0.514-0.511-0.98-0.847-1.402
				c-0.336-0.421-0.721-0.785-1.153-1.094c-0.434-0.307-0.912-0.547-1.436-0.717c-0.524-0.172-1.083-0.257-1.675-0.257
				c-1.049,0-1.931,0.226-2.649,0.675c-0.717,0.45-1.302,1.037-1.751,1.761c-0.45,0.724-0.775,1.541-0.975,2.452
				c-0.199,0.912-0.299,1.828-0.299,2.752V294.003z"/>
		</g>
	</g>
	<g display="inline">
		<g>
			<path fill="#AAAAAA" d="M164.017,454.887h-6.152v10.408h-2.017v-24.883h7.023c1.094,0.021,2.125,0.199,3.094,0.529
				c0.968,0.326,1.814,0.807,2.538,1.428c0.723,0.621,1.293,1.382,1.709,2.281c0.415,0.896,0.624,1.932,0.624,3.094
				c0,0.831-0.123,1.589-0.368,2.271c-0.245,0.688-0.584,1.307-1.017,1.854c-0.434,0.553-0.948,1.04-1.547,1.461
				c-0.598,0.422-1.256,0.78-1.974,1.076l5.674,10.664v0.223h-2.136L164.017,454.887z M157.864,453.161h5.417
				c0.775-0.022,1.498-0.171,2.171-0.444c0.672-0.271,1.256-0.646,1.752-1.119c0.495-0.473,0.883-1.04,1.162-1.696
				c0.278-0.66,0.419-1.389,0.419-2.175c0-0.877-0.154-1.653-0.462-2.342c-0.308-0.684-0.727-1.261-1.256-1.729
				c-0.53-0.478-1.157-0.834-1.88-1.085c-0.724-0.25-1.502-0.392-2.333-0.41h-4.99V453.161z"/>
			<path fill="#AAAAAA" d="M176.479,455.775c0.012-1.253,0.205-2.443,0.582-3.571c0.375-1.128,0.914-2.116,1.614-2.965
				c0.701-0.854,1.561-1.523,2.581-2.025c1.02-0.501,2.173-0.752,3.461-0.752c1.299,0,2.457,0.251,3.478,0.752
				c1.02,0.502,1.882,1.177,2.589,2.025c0.706,0.849,1.248,1.837,1.623,2.965c0.377,1.128,0.57,2.313,0.582,3.571v0.562
				c-0.012,1.254-0.203,2.443-0.573,3.572c-0.37,1.127-0.908,2.116-1.614,2.965c-0.707,0.849-1.567,1.521-2.581,2.017
				c-1.015,0.495-2.171,0.743-3.47,0.743s-2.458-0.248-3.478-0.743c-1.02-0.496-1.883-1.168-2.589-2.017
				c-0.707-0.849-1.248-1.838-1.623-2.965c-0.377-1.129-0.57-2.318-0.582-3.572V455.775z M178.529,456.34
				c0,0.98,0.137,1.926,0.41,2.837c0.273,0.912,0.673,1.718,1.197,2.418c0.523,0.701,1.17,1.268,1.939,1.688
				c0.769,0.422,1.66,0.632,2.674,0.632c1.003,0,1.889-0.21,2.658-0.632c0.769-0.421,1.412-0.982,1.931-1.688
				c0.519-0.7,0.915-1.506,1.188-2.418c0.273-0.911,0.41-1.854,0.41-2.837v-0.562c0-0.973-0.137-1.907-0.41-2.819
				c-0.273-0.911-0.673-1.718-1.197-2.418c-0.523-0.701-1.173-1.265-1.947-1.692c-0.775-0.427-1.664-0.641-2.666-0.641
				c-1.003,0-1.889,0.214-2.658,0.641c-0.769,0.433-1.413,0.991-1.931,1.692c-0.519,0.7-0.915,1.507-1.188,2.418
				c-0.273,0.912-0.41,1.852-0.41,2.819V456.34z"/>
			<path fill="#AAAAAA" d="M206.236,442.07v4.729h6.854v1.675h-6.854v11.644c0.011,0.717,0.122,1.312,0.333,1.785
				c0.211,0.473,0.496,0.854,0.854,1.146c0.359,0.29,0.78,0.498,1.265,0.624c0.484,0.125,1.011,0.188,1.581,0.188
				c0.569,0,1.153-0.04,1.752-0.119c0.598-0.08,1.107-0.16,1.529-0.24l0.308,1.556c-0.49,0.194-1.088,0.344-1.794,0.438
				c-0.707,0.097-1.425,0.146-2.154,0.146c-0.82,0-1.578-0.1-2.272-0.299c-0.695-0.199-1.299-0.519-1.812-0.957
				c-0.513-0.438-0.917-1.009-1.213-1.709c-0.297-0.701-0.451-1.558-0.462-2.572v-11.616h-5.144v-1.68h5.144v-4.729h2.085V442.07z"
				/>
			<path fill="#AAAAAA" d="M234.012,465.295c-0.126-0.376-0.223-0.795-0.291-1.256c-0.068-0.462-0.114-0.932-0.137-1.41
				c-0.354,0.434-0.764,0.832-1.23,1.196c-0.468,0.365-0.978,0.681-1.529,0.948c-0.553,0.269-1.148,0.479-1.786,0.633
				c-0.639,0.148-1.305,0.229-1.999,0.229c-0.866,0-1.673-0.126-2.419-0.376s-1.396-0.604-1.948-1.06
				c-0.553-0.455-0.985-1.005-1.299-1.649c-0.313-0.644-0.47-1.359-0.47-2.161c0-1.061,0.233-1.96,0.7-2.696
				c0.468-0.74,1.1-1.346,1.897-1.808c0.797-0.461,1.72-0.8,2.769-1.017c1.048-0.216,2.147-0.325,3.299-0.325h3.998v-2.102
				c-0.011-0.694-0.147-1.312-0.41-1.841c-0.262-0.526-0.618-0.976-1.067-1.329c-0.45-0.359-0.986-0.635-1.606-0.812
				c-0.621-0.182-1.297-0.273-2.025-0.273c-0.661,0-1.29,0.091-1.889,0.262c-0.598,0.171-1.128,0.416-1.589,0.73
				c-0.462,0.318-0.835,0.709-1.12,1.17c-0.284,0.462-0.438,0.982-0.461,1.564l-2.051-0.021c0.034-0.781,0.242-1.51,0.624-2.17
				c0.381-0.661,0.897-1.229,1.546-1.718c0.65-0.48,1.404-0.863,2.265-1.137c0.861-0.274,1.78-0.41,2.761-0.41
				c0.979,0,1.899,0.126,2.76,0.376c0.859,0.251,1.606,0.627,2.238,1.128c0.633,0.502,1.134,1.128,1.504,1.88
				s0.562,1.63,0.572,2.632v8.955c0,0.615,0.055,1.236,0.163,1.862c0.107,0.627,0.241,1.226,0.401,1.795l0.018,0.205h-2.189
				L234.012,465.295L234.012,465.295z M227.261,463.825c0.718,0.012,1.404-0.074,2.06-0.257c0.654-0.187,1.256-0.438,1.803-0.765
				c0.547-0.32,1.031-0.712,1.453-1.157c0.421-0.45,0.752-0.942,0.99-1.479v-4.051h-3.725c-0.9,0-1.767,0.063-2.598,0.205
				c-0.832,0.137-1.567,0.357-2.205,0.676c-0.639,0.312-1.148,0.729-1.529,1.256c-0.382,0.524-0.572,1.18-0.572,1.965
				c0,0.562,0.113,1.062,0.342,1.504c0.228,0.445,0.535,0.824,0.922,1.142c0.388,0.312,0.844,0.553,1.367,0.718
				C226.093,463.743,226.656,463.825,227.261,463.825z"/>
			<path fill="#AAAAAA" d="M249.994,442.07v4.729h6.854v1.675h-6.854v11.644c0.011,0.717,0.122,1.312,0.333,1.785
				c0.211,0.473,0.496,0.854,0.854,1.146c0.359,0.29,0.78,0.498,1.265,0.624c0.484,0.125,1.011,0.188,1.581,0.188
				c0.569,0,1.153-0.04,1.752-0.119c0.598-0.08,1.107-0.16,1.529-0.24l0.308,1.556c-0.49,0.194-1.088,0.344-1.794,0.438
				c-0.707,0.097-1.425,0.146-2.154,0.146c-0.82,0-1.578-0.1-2.272-0.299c-0.695-0.199-1.299-0.519-1.812-0.957
				c-0.513-0.438-0.917-1.009-1.213-1.709c-0.297-0.701-0.451-1.558-0.462-2.572v-11.616h-5.144v-1.68h5.144v-4.729h2.085V442.07z"
				/>
			<path fill="#AAAAAA" d="M265.533,446.804h8.578v16.685h6.289v1.812h-14.867v-1.812h6.527v-14.854h-6.527V446.804z
				 M271.463,441.745c0-0.421,0.119-0.786,0.359-1.094c0.238-0.312,0.638-0.462,1.195-0.462c0.547,0,0.943,0.149,1.188,0.462
				c0.244,0.308,0.367,0.673,0.367,1.094c0,0.396-0.123,0.749-0.367,1.051c-0.245,0.303-0.642,0.453-1.188,0.453
				c-0.558,0-0.957-0.15-1.195-0.453C271.582,442.494,271.463,442.145,271.463,441.745z"/>
			<path fill="#AAAAAA" d="M285.873,455.775c0.012-1.253,0.205-2.443,0.582-3.571c0.375-1.128,0.914-2.116,1.614-2.965
				c0.701-0.854,1.561-1.523,2.581-2.025c1.02-0.501,2.173-0.752,3.461-0.752c1.299,0,2.457,0.251,3.478,0.752
				c1.02,0.502,1.882,1.177,2.589,2.025c0.706,0.849,1.248,1.837,1.623,2.965c0.377,1.128,0.57,2.313,0.582,3.571v0.562
				c-0.012,1.254-0.203,2.443-0.573,3.572c-0.37,1.127-0.908,2.116-1.614,2.965c-0.707,0.849-1.567,1.521-2.581,2.017
				c-1.015,0.495-2.171,0.743-3.47,0.743c-1.299,0-2.458-0.248-3.478-0.743c-1.02-0.496-1.883-1.168-2.589-2.017
				c-0.707-0.849-1.248-1.838-1.623-2.965c-0.377-1.129-0.57-2.318-0.582-3.572V455.775z M287.924,456.34
				c0,0.98,0.137,1.926,0.41,2.837c0.273,0.912,0.673,1.718,1.197,2.418c0.523,0.701,1.17,1.268,1.938,1.688
				c0.771,0.422,1.66,0.632,2.674,0.632c1.003,0,1.889-0.21,2.658-0.632c0.77-0.421,1.412-0.982,1.931-1.688
				c0.519-0.7,0.915-1.506,1.188-2.418c0.273-0.911,0.41-1.854,0.41-2.837v-0.562c0-0.973-0.137-1.907-0.41-2.819
				c-0.273-0.911-0.673-1.718-1.197-2.418c-0.523-0.701-1.173-1.265-1.947-1.692c-0.775-0.427-1.664-0.641-2.666-0.641
				c-1.003,0-1.889,0.214-2.658,0.641c-0.769,0.433-1.413,0.991-1.931,1.692c-0.519,0.7-0.915,1.507-1.188,2.418
				c-0.273,0.912-0.41,1.852-0.41,2.819L287.924,456.34L287.924,456.34z"/>
			<path fill="#AAAAAA" d="M310.691,446.804l0.154,3.475c0.649-1.151,1.515-2.071,2.598-2.766c1.082-0.688,2.312-1.039,3.691-1.051
				c2.027,0,3.577,0.606,4.648,1.82c1.07,1.213,1.612,2.937,1.623,5.169v11.844h-2.051v-11.809c-0.011-1.698-0.398-3-1.162-3.905
				c-0.763-0.906-1.947-1.354-3.555-1.342c-0.66,0-1.29,0.104-1.888,0.325c-0.599,0.216-1.146,0.512-1.641,0.889
				c-0.496,0.375-0.935,0.82-1.316,1.332c-0.382,0.514-0.692,1.071-0.931,1.676v12.834h-2.051v-18.491H310.691L310.691,446.804z"/>
		</g>
	</g>
	<g display="inline">
		<g>
			<path fill="#AAAAAA" d="M1500.118,299.25h-11.006v11.621h-2.052v-24.883h14.715v1.795h-12.663v9.672h11.006V299.25z"/>
			<path fill="#AAAAAA" d="M1509.129,292.38h8.578v16.68h6.289v1.812h-14.867v-1.812h6.527v-14.851h-6.527V292.38z
				 M1515.059,287.321c0-0.421,0.119-0.786,0.359-1.094c0.238-0.308,0.638-0.462,1.195-0.462c0.547,0,0.938,0.154,1.188,0.462
				c0.244,0.308,0.367,0.673,0.367,1.094c0,0.396-0.123,0.749-0.367,1.051c-0.245,0.303-0.642,0.453-1.188,0.453
				c-0.562,0-0.957-0.15-1.195-0.453C1515.178,288.07,1515.059,287.721,1515.059,287.321z"/>
			<path fill="#AAAAAA" d="M1531.008,284.621h8.613v24.438h6.254v1.812h-14.867v-1.812h6.562V286.45h-6.562V284.621
				L1531.008,284.621z"/>
			<path fill="#AAAAAA" d="M1552.887,284.621h8.613v24.438h6.254v1.812h-14.867v-1.812h6.562V286.45h-6.562V284.621
				L1552.887,284.621z"/>
			<path fill="#AAAAAA" d="M1582.182,311.213c-1.287,0-2.461-0.239-3.52-0.718c-1.061-0.479-1.969-1.128-2.727-1.948
				c-0.763-0.82-1.35-1.78-1.765-2.88c-0.416-1.099-0.63-2.27-0.642-3.512v-0.735c0.012-1.321,0.229-2.552,0.654-3.691
				c0.432-1.139,1.015-2.125,1.752-2.973c0.739-0.844,1.611-1.507,2.613-1.991c1.004-0.484,2.079-0.727,3.23-0.727
				c1.229,0,2.317,0.222,3.264,0.667c0.946,0.443,1.74,1.051,2.385,1.819c0.646,0.77,1.133,1.667,1.471,2.692
				c0.34,1.025,0.514,2.125,0.521,3.298v1.247h-13.842v0.396c0.011,0.969,0.176,1.895,0.494,2.772
				c0.317,0.888,0.77,1.66,1.352,2.333c0.58,0.677,1.281,1.21,2.104,1.614c0.818,0.405,1.729,0.606,2.732,0.606
				c1.141,0.012,2.172-0.198,3.096-0.634c0.922-0.436,1.709-1.062,2.355-1.883l1.299,0.979c-0.342,0.479-0.745,0.92-1.213,1.324
				c-0.469,0.399-0.987,0.747-1.562,1.028c-0.572,0.285-1.205,0.512-1.89,0.667C1583.668,311.131,1582.945,311.213,1582.182,311.213
				z M1581.789,293.781c-0.832,0-1.596,0.157-2.29,0.47c-0.695,0.313-1.306,0.75-1.829,1.308c-0.523,0.559-0.957,1.217-1.299,1.974
				c-0.342,0.758-0.575,1.587-0.7,2.486h11.706v-0.227c-0.021-0.763-0.162-1.507-0.418-2.229c-0.257-0.728-0.621-1.364-1.094-1.922
				c-0.475-0.559-1.051-1.009-1.734-1.351C1583.448,293.952,1582.666,293.781,1581.789,293.781z"/>
			<path fill="#AAAAAA" d="M1595.551,301.455c0-1.23,0.153-2.413,0.461-3.547c0.312-1.133,0.771-2.136,1.377-3.008
				c0.608-0.871,1.371-1.566,2.289-2.085c0.918-0.518,1.996-0.777,3.238-0.777c1.173,0,2.225,0.251,3.152,0.752
				c0.929,0.502,1.707,1.202,2.334,2.103v-10.271h2.033v26.25h-1.914l-0.086-2.41c-0.648,0.889-1.447,1.57-2.396,2.043
				c-0.944,0.474-1.999,0.709-3.161,0.709c-1.22,0-2.287-0.265-3.203-0.795c-0.918-0.529-1.682-1.229-2.291-2.102
				c-0.606-0.873-1.065-1.874-1.375-3.013c-0.309-1.134-0.462-2.299-0.462-3.49L1595.551,301.455L1595.551,301.455z
				 M1597.618,301.812c0,0.924,0.1,1.841,0.299,2.752c0.199,0.907,0.521,1.729,0.966,2.448c0.445,0.729,1.025,1.312,1.743,1.757
				c0.718,0.438,1.595,0.661,2.632,0.661c0.581,0,1.131-0.069,1.649-0.223c0.518-0.146,0.995-0.361,1.436-0.641
				c0.438-0.278,0.831-0.615,1.179-1.013c0.353-0.394,0.646-0.834,0.881-1.319v-8.955c-0.229-0.514-0.51-0.98-0.847-1.402
				c-0.336-0.421-0.721-0.785-1.153-1.094c-0.434-0.307-0.907-0.547-1.436-0.717c-0.523-0.172-1.083-0.257-1.675-0.257
				c-1.049,0-1.931,0.226-2.649,0.675c-0.717,0.45-1.302,1.037-1.751,1.761c-0.45,0.724-0.774,1.541-0.975,2.452
				c-0.199,0.912-0.299,1.828-0.299,2.752V301.812L1597.618,301.812z"/>
		</g>
	</g>
	<g display="inline">
		<g>
			<path fill="#AAAAAA" d="M1502.322,363.393c-0.012,0.848-0.085,1.706-0.227,2.594c-0.137,0.883-0.351,1.732-0.641,2.562
				c-0.291,0.826-0.658,1.604-1.104,2.324c-0.442,0.723-0.974,1.354-1.578,1.896c-0.609,0.542-1.313,0.974-2.11,1.282
				c-0.798,0.312-1.691,0.472-2.687,0.472c-0.979,0-1.865-0.154-2.666-0.472c-0.799-0.312-1.509-0.74-2.127-1.282
				c-0.618-0.541-1.154-1.176-1.604-1.9c-0.45-0.729-0.82-1.508-1.111-2.333c-0.29-0.825-0.507-1.682-0.646-2.56
				c-0.146-0.877-0.221-1.732-0.23-2.58v-3.276c0.016-0.849,0.09-1.706,0.23-2.59c0.142-0.888,0.354-1.737,0.641-2.563
				c0.285-0.825,0.652-1.604,1.104-2.333c0.446-0.729,0.979-1.367,1.599-1.914s1.318-0.977,2.11-1.29
				c0.791-0.312,1.683-0.47,2.675-0.47c0.99,0,1.885,0.157,2.683,0.47c0.8,0.313,1.51,0.741,2.13,1.282
				c0.618,0.541,1.151,1.177,1.601,1.905c0.442,0.729,0.812,1.507,1.103,2.333c0.29,0.821,0.506,1.681,0.646,2.562
				c0.137,0.882,0.211,1.751,0.222,2.606v3.278L1502.322,363.393L1502.322,363.393z M1500.307,360.076
				c-0.012-0.66-0.062-1.354-0.149-2.067c-0.097-0.718-0.239-1.419-0.444-2.103c-0.205-0.688-0.47-1.335-0.795-1.956
				c-0.324-0.621-0.721-1.165-1.188-1.632c-0.47-0.473-1.017-0.838-1.643-1.111c-0.627-0.273-1.339-0.41-2.136-0.41
				c-0.798,0-1.508,0.145-2.128,0.419c-0.621,0.279-1.165,0.652-1.632,1.119c-0.473,0.468-0.863,1.012-1.188,1.632
				c-0.324,0.621-0.589,1.273-0.794,1.957c-0.205,0.688-0.354,1.385-0.442,2.104c-0.094,0.719-0.146,1.397-0.151,2.051v3.312
				c0.011,0.66,0.062,1.352,0.162,2.062c0.097,0.713,0.248,1.413,0.453,2.103c0.202,0.69,0.47,1.35,0.795,1.969
				c0.321,0.617,0.72,1.164,1.188,1.633c0.468,0.468,1.018,0.841,1.645,1.119c0.627,0.275,1.34,0.42,2.137,0.42
				c0.81,0,1.521-0.145,2.146-0.42c0.62-0.278,1.164-0.651,1.636-1.119c0.468-0.469,0.859-1.016,1.188-1.633
				c0.325-0.619,0.587-1.274,0.786-1.969c0.199-0.688,0.342-1.39,0.428-2.103c0.085-0.712,0.136-1.398,0.146-2.062v-3.312
				L1500.307,360.076L1500.307,360.076z"/>
			<path fill="#AAAAAA" d="M1521.057,371.287c-0.615,1.015-1.427,1.807-2.435,2.376c-1.009,0.569-2.202,0.854-3.581,0.854
				c-1.025,0-1.928-0.165-2.708-0.491c-0.781-0.33-1.437-0.813-1.966-1.452c-0.529-0.643-0.938-1.419-1.213-2.345
				c-0.279-0.925-0.419-1.978-0.419-3.158v-11.387h2.034V367.1c0.021,1.857,0.396,3.27,1.127,4.227
				c0.729,0.957,1.854,1.436,3.385,1.436c1.537,0,2.785-0.354,3.742-1.061c0.957-0.706,1.623-1.663,2-2.871l-0.021-13.146h2.066
				v18.491h-1.912L1521.057,371.287z"/>
			<path fill="#AAAAAA" d="M1537.348,350.951v4.729h6.854v1.68h-6.854v11.639c0.012,0.717,0.122,1.312,0.334,1.785
				c0.211,0.474,0.495,0.854,0.854,1.146c0.358,0.29,0.778,0.498,1.265,0.624c0.484,0.125,1.012,0.188,1.581,0.188
				s1.153-0.04,1.752-0.119c0.599-0.08,1.107-0.16,1.529-0.24l0.31,1.558c-0.487,0.192-1.09,0.342-1.795,0.438
				c-0.707,0.097-1.426,0.146-2.151,0.146c-0.819,0-1.578-0.103-2.271-0.302c-0.692-0.195-1.299-0.519-1.812-0.957
				c-0.516-0.438-0.916-1.009-1.215-1.709c-0.297-0.698-0.449-1.558-0.461-2.567v-11.621h-5.146v-1.68h5.146v-4.729h2.084v-0.005
				L1537.348,350.951L1537.348,350.951z"/>
			<path fill="#AAAAAA" d="M1552.887,347.926h8.613v24.438h6.254v1.812h-14.867v-1.812h6.562v-22.61h-6.562V347.926
				L1552.887,347.926z"/>
			<path fill="#AAAAAA" d="M1574.766,355.685h8.578v16.685h6.289v1.812h-14.867v-1.812h6.527v-14.854h-6.527V355.685z
				 M1580.695,350.626c0-0.421,0.119-0.786,0.354-1.094c0.238-0.312,0.642-0.462,1.195-0.462c0.547,0,0.938,0.149,1.188,0.462
				c0.242,0.308,0.365,0.673,0.365,1.094c0,0.399-0.123,0.749-0.365,1.051c-0.245,0.308-0.644,0.453-1.188,0.453
				c-0.562,0-0.957-0.146-1.195-0.453C1580.814,351.375,1580.695,351.025,1580.695,350.626z"/>
			<path fill="#AAAAAA" d="M1598.045,355.685l0.154,3.475c0.648-1.151,1.515-2.071,2.598-2.766c1.082-0.688,2.312-1.034,3.691-1.051
				c2.027,0,3.577,0.606,4.648,1.82c1.065,1.213,1.607,2.937,1.623,5.169v11.844h-2.056v-11.809c-0.011-1.698-0.396-3-1.162-3.905
				c-0.763-0.906-1.942-1.353-3.555-1.342c-0.66,0-1.29,0.105-1.892,0.325c-0.6,0.216-1.146,0.512-1.642,0.889
				c-0.495,0.375-0.935,0.82-1.313,1.332c-0.385,0.514-0.69,1.071-0.934,1.676v12.834h-2.051v-18.491H1598.045L1598.045,355.685z"/>
			<path fill="#AAAAAA" d="M1625.939,374.518c-1.287,0-2.461-0.234-3.521-0.718c-1.062-0.479-1.969-1.128-2.729-1.948
				c-0.761-0.815-1.348-1.775-1.763-2.88c-0.416-1.099-0.63-2.27-0.641-3.512v-0.735c0.011-1.316,0.229-2.552,0.653-3.688
				c0.432-1.141,1.015-2.13,1.752-2.977c0.74-0.845,1.613-1.508,2.615-1.987c1.002-0.484,2.077-0.729,3.229-0.729
				c1.229,0,2.315,0.227,3.264,0.667c0.946,0.443,1.74,1.053,2.388,1.819c0.646,0.77,1.135,1.667,1.472,2.692
				c0.336,1.021,0.51,2.125,0.521,3.298v1.247h-13.842v0.394c0.011,0.969,0.176,1.896,0.495,2.777
				c0.315,0.883,0.771,1.66,1.351,2.333c0.58,0.672,1.281,1.21,2.104,1.609c0.815,0.405,1.729,0.606,2.729,0.606
				c1.143,0.012,2.17-0.198,3.094-0.632c0.927-0.438,1.709-1.062,2.357-1.88l1.299,0.975c-0.342,0.479-0.746,0.92-1.213,1.324
				c-0.468,0.404-0.988,0.749-1.562,1.033c-0.574,0.282-1.203,0.508-1.89,0.667C1627.425,374.438,1626.703,374.518,1625.939,374.518
				z M1625.547,357.086c-0.832,0-1.596,0.157-2.29,0.47c-0.694,0.313-1.305,0.75-1.829,1.312c-0.521,0.559-0.957,1.217-1.299,1.974
				c-0.342,0.758-0.574,1.587-0.699,2.487h11.705v-0.228c-0.021-0.763-0.162-1.507-0.418-2.229
				c-0.257-0.723-0.621-1.364-1.094-1.922c-0.475-0.562-1.051-1.009-1.734-1.354
				C1627.206,357.257,1626.424,357.086,1625.547,357.086z"/>
			<path fill="#AAAAAA" d="M1639.309,364.76c0-1.229,0.153-2.413,0.461-3.547c0.312-1.133,0.771-2.136,1.377-3.008
				c0.608-0.871,1.371-1.566,2.289-2.085c0.918-0.521,1.996-0.777,3.238-0.777c1.174,0,2.225,0.251,3.153,0.752
				c0.928,0.502,1.706,1.202,2.333,2.104v-10.271h2.033v26.25h-1.914l-0.086-2.41c-0.648,0.894-1.446,1.57-2.396,2.043
				c-0.941,0.478-1.999,0.714-3.161,0.714c-1.22,0-2.287-0.27-3.203-0.8c-0.918-0.524-1.682-1.229-2.291-2.102
				c-0.605-0.873-1.064-1.874-1.375-3.008c-0.309-1.134-0.461-2.299-0.461-3.495L1639.309,364.76L1639.309,364.76z
				 M1641.376,365.118c0,0.923,0.101,1.84,0.299,2.751c0.199,0.912,0.521,1.729,0.966,2.453c0.445,0.724,1.025,1.307,1.743,1.752
				c0.718,0.438,1.595,0.666,2.632,0.666c0.581,0,1.131-0.074,1.649-0.228c0.518-0.146,0.996-0.356,1.437-0.641
				c0.438-0.278,0.83-0.615,1.178-1.008c0.353-0.396,0.646-0.835,0.886-1.324v-8.955c-0.229-0.514-0.515-0.979-0.851-1.397
				c-0.336-0.426-0.722-0.785-1.149-1.099c-0.438-0.307-0.912-0.547-1.438-0.717c-0.521-0.172-1.082-0.257-1.676-0.257
				c-1.049,0-1.931,0.226-2.648,0.675c-0.717,0.45-1.303,1.037-1.75,1.761c-0.45,0.729-0.772,1.541-0.977,2.452
				c-0.197,0.912-0.299,1.828-0.299,2.752L1641.376,365.118L1641.376,365.118z"/>
		</g>
	</g>
	<g display="inline">
		<g>
			<path fill="#AAAAAA" d="M1081.458,498.088c-0.011,0.843-0.085,1.706-0.222,2.589c-0.142,0.883-0.354,1.737-0.646,2.563
				s-0.655,1.601-1.103,2.324c-0.445,0.723-0.977,1.354-1.581,1.896c-0.609,0.542-1.313,0.969-2.11,1.282
				c-0.798,0.312-1.688,0.47-2.684,0.47c-0.979,0-1.868-0.157-2.666-0.47c-0.799-0.313-1.508-0.74-2.127-1.282
				c-0.621-0.541-1.157-1.176-1.606-1.905c-0.448-0.729-0.815-1.507-1.106-2.333c-0.291-0.825-0.512-1.677-0.649-2.555
				c-0.145-0.877-0.22-1.737-0.229-2.58v-3.281c0.015-0.844,0.09-1.706,0.229-2.59c0.143-0.883,0.354-1.737,0.641-2.562
				c0.285-0.825,0.652-1.604,1.104-2.333c0.449-0.729,0.98-1.367,1.599-1.914s1.318-0.979,2.11-1.29
				c0.791-0.312,1.683-0.474,2.675-0.474c0.99,0,1.885,0.156,2.687,0.474c0.798,0.312,1.508,0.741,2.129,1.282
				c0.619,0.541,1.148,1.177,1.598,1.9c0.444,0.729,0.812,1.507,1.104,2.333s0.507,1.686,0.644,2.563s0.211,1.751,0.222,2.604v3.283
				L1081.458,498.088L1081.458,498.088z M1079.442,494.771c-0.017-0.66-0.063-1.354-0.154-2.067
				c-0.092-0.718-0.239-1.419-0.444-2.104c-0.205-0.684-0.47-1.335-0.795-1.956c-0.324-0.616-0.721-1.16-1.188-1.632
				c-0.473-0.468-1.02-0.838-1.646-1.106c-0.627-0.273-1.339-0.41-2.136-0.41c-0.798,0-1.508,0.14-2.128,0.419
				c-0.621,0.279-1.165,0.652-1.632,1.119c-0.473,0.468-0.863,1.012-1.188,1.632c-0.321,0.621-0.589,1.271-0.794,1.957
				c-0.205,0.684-0.354,1.385-0.441,2.102c-0.092,0.724-0.146,1.402-0.152,2.056v3.312c0.011,0.66,0.062,1.347,0.162,2.062
				c0.097,0.713,0.248,1.409,0.453,2.103c0.205,0.694,0.47,1.345,0.795,1.965c0.324,0.621,0.72,1.165,1.188,1.632
				c0.471,0.473,1.019,0.845,1.646,1.12c0.626,0.279,1.339,0.419,2.136,0.419c0.812,0,1.524-0.14,2.146-0.419
				c0.617-0.275,1.161-0.647,1.634-1.12c0.467-0.467,0.858-1.011,1.188-1.632c0.325-0.62,0.587-1.271,0.786-1.965
				c0.199-0.693,0.342-1.39,0.428-2.103c0.085-0.716,0.139-1.398,0.146-2.062v-3.312L1079.442,494.771L1079.442,494.771z"/>
			<path fill="#AAAAAA" d="M1102.738,499.812c0,1.192-0.146,2.357-0.438,3.491c-0.291,1.139-0.73,2.141-1.333,3.013
				c-0.599,0.866-1.354,1.567-2.265,2.102c-0.912,0.53-1.994,0.795-3.247,0.795c-1.151,0-2.204-0.223-3.161-0.666
				c-0.957-0.445-1.761-1.088-2.41-1.932v9.365h-2.051V490.38h1.914l0.086,2.529c0.646-0.911,1.446-1.617,2.393-2.119
				c0.945-0.501,2.015-0.752,3.195-0.752c1.265,0,2.358,0.26,3.281,0.777c0.923,0.519,1.681,1.214,2.271,2.085
				c0.592,0.872,1.033,1.875,1.324,3.008c0.29,1.134,0.436,2.312,0.436,3.547v0.354L1102.738,499.812L1102.738,499.812z
				 M1100.688,499.455c0-0.924-0.103-1.84-0.308-2.752c-0.205-0.911-0.536-1.729-0.991-2.452c-0.456-0.724-1.046-1.311-1.769-1.761
				c-0.724-0.449-1.609-0.675-2.657-0.675c-0.593,0-1.146,0.083-1.667,0.247c-0.519,0.161-0.991,0.396-1.418,0.696
				c-0.428,0.308-0.81,0.661-1.146,1.077s-0.618,0.874-0.851,1.376v9.16c0.479,0.957,1.162,1.715,2.056,2.271
				c0.889,0.561,1.903,0.839,3.059,0.839c1.037,0,1.917-0.229,2.641-0.688c0.729-0.455,1.312-1.045,1.763-1.769
				c0.447-0.728,0.775-1.543,0.98-2.461c0.205-0.917,0.31-1.839,0.31-2.765L1100.688,499.455L1100.688,499.455z"/>
			<path fill="#AAAAAA" d="M1117.559,509.213c-1.287,0-2.461-0.239-3.52-0.718c-1.062-0.479-1.969-1.128-2.729-1.948
				c-0.758-0.82-1.345-1.78-1.76-2.88c-0.416-1.099-0.63-2.27-0.641-3.512v-0.735c0.011-1.321,0.229-2.552,0.655-3.688
				c0.43-1.144,1.013-2.135,1.752-2.978c0.737-0.844,1.609-1.507,2.611-1.991c1.003-0.479,2.079-0.727,3.23-0.727
				c1.229,0,2.313,0.222,3.264,0.667c0.946,0.443,1.74,1.051,2.385,1.819c0.646,0.77,1.138,1.667,1.475,2.688
				c0.336,1.025,0.51,2.125,0.521,3.298v1.247h-13.842v0.396c0.011,0.969,0.176,1.895,0.495,2.772
				c0.316,0.888,0.769,1.66,1.351,2.333c0.58,0.675,1.281,1.21,2.104,1.614c0.815,0.405,1.729,0.606,2.729,0.606
				c1.144,0.012,2.171-0.198,3.099-0.634c0.922-0.436,1.709-1.062,2.354-1.883l1.299,0.979c-0.342,0.479-0.746,0.92-1.213,1.322
				c-0.468,0.401-0.988,0.749-1.562,1.03c-0.575,0.285-1.204,0.511-1.893,0.667C1119.045,509.131,1118.322,509.213,1117.559,509.213
				z M1117.166,491.781c-0.832,0-1.596,0.157-2.29,0.47c-0.695,0.313-1.305,0.75-1.829,1.308c-0.521,0.562-0.957,1.222-1.299,1.979
				c-0.342,0.758-0.575,1.587-0.7,2.482h11.706v-0.223c-0.021-0.763-0.162-1.507-0.418-2.229c-0.257-0.728-0.621-1.364-1.094-1.927
				c-0.474-0.559-1.051-1.009-1.734-1.351C1118.825,491.952,1118.043,491.781,1117.166,491.781z"/>
			<path fill="#AAAAAA" d="M1133.422,490.38l0.154,3.47c0.646-1.146,1.515-2.066,2.598-2.761c1.082-0.688,2.312-1.039,3.691-1.051
				c2.027,0,3.577,0.604,4.646,1.82c1.07,1.213,1.612,2.937,1.623,5.169v11.844h-2.051v-11.809c-0.011-1.698-0.396-3-1.162-3.905
				c-0.763-0.906-1.942-1.354-3.555-1.342c-0.66,0-1.29,0.104-1.888,0.32c-0.604,0.221-1.146,0.517-1.646,0.894
				c-0.496,0.375-0.935,0.815-1.312,1.332c-0.387,0.514-0.692,1.066-0.936,1.676v12.834h-2.051V490.38H1133.422z"/>
		</g>
	</g>
	<g display="inline">
		<g>
			<path fill="#AAAAAA" d="M1081.39,564.622c-0.137,1.117-0.416,2.156-0.837,3.119c-0.422,0.963-0.979,1.8-1.675,2.512
				c-0.695,0.713-1.519,1.271-2.47,1.667c-0.951,0.398-2.021,0.598-3.204,0.598c-0.991,0-1.89-0.146-2.691-0.448
				c-0.804-0.307-1.516-0.72-2.137-1.238c-0.621-0.524-1.159-1.14-1.615-1.846c-0.455-0.707-0.831-1.472-1.127-2.282
				c-0.297-0.814-0.517-1.66-0.657-2.538c-0.144-0.877-0.221-1.748-0.229-2.614v-3.604c0.011-0.865,0.088-1.736,0.229-2.614
				c0.146-0.877,0.36-1.724,0.657-2.538c0.296-0.812,0.672-1.574,1.127-2.281c0.456-0.706,0.994-1.321,1.615-1.854
				s1.333-0.945,2.137-1.247s1.7-0.453,2.691-0.453c1.207,0,2.287,0.199,3.238,0.598c0.946,0.399,1.771,0.955,2.47,1.667
				c0.693,0.713,1.25,1.557,1.666,2.521s0.687,2.021,0.812,3.162h-2.028c-0.142-0.855-0.356-1.658-0.658-2.41
				s-0.703-1.41-1.205-1.975c-0.501-0.563-1.104-1.013-1.812-1.334c-0.707-0.323-1.53-0.485-2.479-0.485
				c-0.812,0-1.527,0.137-2.153,0.41c-0.627,0.271-1.177,0.639-1.646,1.094c-0.477,0.456-0.874,0.987-1.205,1.598
				c-0.33,0.61-0.598,1.26-0.803,1.94s-0.356,1.381-0.453,2.093c-0.1,0.713-0.146,1.404-0.146,2.077v3.641
				c0,0.675,0.052,1.366,0.146,2.086c0.097,0.721,0.248,1.419,0.453,2.104c0.205,0.684,0.473,1.331,0.803,1.938
				c0.331,0.607,0.732,1.146,1.205,1.604s1.021,0.828,1.646,1.102c0.625,0.274,1.349,0.41,2.153,0.41
				c0.957,0,1.791-0.153,2.504-0.47c0.712-0.312,1.315-0.749,1.812-1.308c0.492-0.562,0.894-1.217,1.191-1.969
				c0.307-0.753,0.52-1.562,0.646-2.428h2.028L1081.39,564.622L1081.39,564.622z"/>
			<path fill="#AAAAAA" d="M1088.264,545.926h8.613v24.438h6.254v1.812h-14.867v-1.812h6.562v-22.61h-6.562V545.926
				L1088.264,545.926z"/>
			<path fill="#AAAAAA" d="M1108.604,562.656c0.017-1.253,0.205-2.443,0.582-3.571c0.375-1.128,0.914-2.116,1.614-2.965
				c0.701-0.849,1.562-1.523,2.581-2.025c1.021-0.501,2.173-0.752,3.461-0.752c1.299,0,2.457,0.251,3.479,0.752
				c1.02,0.502,1.882,1.177,2.589,2.025c0.706,0.849,1.248,1.837,1.623,2.965c0.377,1.128,0.57,2.318,0.582,3.571v0.562
				c-0.012,1.254-0.203,2.443-0.573,3.572c-0.37,1.127-0.907,2.116-1.612,2.965c-0.707,0.854-1.564,1.521-2.582,2.021
				c-1.016,0.495-2.172,0.739-3.471,0.739s-2.458-0.244-3.478-0.739c-1.021-0.496-1.884-1.168-2.589-2.021
				c-0.707-0.849-1.248-1.838-1.623-2.965c-0.377-1.129-0.57-2.318-0.582-3.572L1108.604,562.656L1108.604,562.656z
				 M1110.654,563.221c0,0.98,0.137,1.931,0.41,2.837c0.271,0.912,0.673,1.723,1.192,2.418c0.523,0.701,1.172,1.268,1.939,1.688
				c0.769,0.422,1.66,0.632,2.674,0.632c1.003,0,1.889-0.21,2.658-0.632c0.769-0.421,1.409-0.982,1.931-1.688
				c0.521-0.695,0.915-1.506,1.188-2.418c0.271-0.911,0.407-1.854,0.407-2.837v-0.562c0-0.968-0.137-1.907-0.407-2.819
				c-0.271-0.911-0.675-1.718-1.195-2.418c-0.523-0.701-1.173-1.265-1.947-1.689c-0.771-0.43-1.664-0.644-2.666-0.644
				c-1.003,0-1.889,0.214-2.658,0.644c-0.769,0.43-1.412,0.988-1.931,1.689c-0.521,0.7-0.915,1.507-1.188,2.418
				c-0.271,0.912-0.408,1.854-0.408,2.819L1110.654,563.221L1110.654,563.221z"/>
			<path fill="#AAAAAA" d="M1144.445,567.477c0-0.565-0.146-1.062-0.433-1.482c-0.28-0.421-0.675-0.783-1.17-1.085
				c-0.496-0.307-1.063-0.561-1.718-0.766c-0.65-0.201-1.339-0.382-2.067-0.525c-0.889-0.187-1.75-0.401-2.581-0.657
				c-0.832-0.257-1.567-0.584-2.222-0.982c-0.649-0.396-1.168-0.886-1.558-1.462c-0.39-0.571-0.582-1.28-0.582-2.127
				c0-0.798,0.197-1.51,0.602-2.137c0.396-0.626,0.923-1.156,1.572-1.59c0.646-0.438,1.39-0.763,2.222-0.982
				c0.831-0.222,1.688-0.333,2.562-0.333c1.002,0,1.938,0.123,2.812,0.367c0.871,0.245,1.635,0.604,2.29,1.077
				c0.654,0.473,1.176,1.051,1.562,1.731c0.39,0.687,0.601,1.467,0.636,2.345h-2.054c-0.021-0.595-0.185-1.125-0.479-1.604
				c-0.297-0.473-0.688-0.866-1.18-1.188c-0.49-0.318-1.047-0.563-1.666-0.735c-0.621-0.17-1.268-0.256-1.924-0.256
				c-0.614,0-1.221,0.065-1.807,0.196c-0.587,0.132-1.107,0.331-1.568,0.599c-0.465,0.271-0.832,0.604-1.11,1.008
				c-0.279,0.405-0.419,0.881-0.419,1.433c-0.011,0.577,0.123,1.062,0.402,1.461c0.273,0.393,0.653,0.724,1.137,0.987
				c0.479,0.271,1.039,0.489,1.683,0.666c0.646,0.181,1.33,0.344,2.062,0.486c0.934,0.194,1.822,0.434,2.675,0.709
				c0.849,0.279,1.598,0.627,2.247,1.043c0.646,0.416,1.162,0.926,1.538,1.529c0.376,0.603,0.562,1.327,0.562,2.17
				c0,0.866-0.208,1.621-0.623,2.265c-0.416,0.646-0.963,1.185-1.641,1.606c-0.679,0.428-1.453,0.747-2.324,0.957
				c-0.872,0.211-1.771,0.312-2.69,0.312c-1.033,0-2.016-0.126-2.933-0.376s-1.726-0.607-2.427-1.085
				c-0.7-0.473-1.262-1.051-1.684-1.729c-0.426-0.688-0.649-1.459-0.688-2.324h2.051c0.068,0.729,0.287,1.339,0.657,1.828
				c0.37,0.49,0.826,0.88,1.367,1.171c0.541,0.29,1.131,0.495,1.769,0.615c0.644,0.119,1.271,0.179,1.882,0.179
				c0.625,0,1.25-0.064,1.87-0.196c0.62-0.131,1.184-0.33,1.68-0.598c0.491-0.269,0.896-0.609,1.213-1.025
				C1144.27,568.556,1144.434,568.057,1144.445,567.477z"/>
			<path fill="#AAAAAA" d="M1161.316,572.518c-1.287,0-2.461-0.234-3.521-0.718c-1.061-0.479-1.969-1.128-2.727-1.948
				c-0.763-0.815-1.35-1.775-1.765-2.88c-0.416-1.099-0.63-2.27-0.641-3.512v-0.735c0.011-1.316,0.229-2.552,0.657-3.688
				c0.428-1.144,1.011-2.13,1.752-2.978c0.736-0.844,1.609-1.507,2.611-1.986c1.006-0.484,2.077-0.729,3.229-0.729
				c1.229,0,2.317,0.224,3.264,0.667s1.74,1.052,2.39,1.819c0.644,0.77,1.133,1.667,1.47,2.688c0.336,1.025,0.51,2.125,0.521,3.303
				v1.247h-13.842v0.394c0.011,0.969,0.176,1.896,0.495,2.777c0.318,0.883,0.771,1.655,1.351,2.333
				c0.58,0.672,1.281,1.21,2.104,1.609c0.815,0.405,1.729,0.606,2.729,0.606c1.144,0.012,2.174-0.198,3.099-0.632
				c0.922-0.438,1.709-1.062,2.354-1.882l1.299,0.977c-0.342,0.479-0.743,0.92-1.213,1.324c-0.468,0.399-0.983,0.749-1.562,1.029
				c-0.576,0.284-1.205,0.512-1.893,0.668C1162.802,572.436,1162.08,572.518,1161.316,572.518z M1160.924,555.086
				c-0.832,0-1.596,0.157-2.29,0.47c-0.694,0.313-1.305,0.75-1.829,1.312c-0.521,0.559-0.957,1.217-1.299,1.974
				c-0.342,0.758-0.575,1.587-0.7,2.487h11.706v-0.228c-0.021-0.763-0.162-1.507-0.418-2.229c-0.257-0.725-0.621-1.364-1.094-1.922
				c-0.474-0.562-1.051-1.009-1.734-1.354C1162.583,555.257,1161.801,555.086,1160.924,555.086z"/>
			<path fill="#AAAAAA" d="M1174.686,562.76c0-1.229,0.153-2.413,0.466-3.547c0.308-1.133,0.766-2.136,1.376-3.008
				c0.604-0.871,1.367-1.566,2.29-2.085c0.917-0.521,1.991-0.777,3.233-0.777c1.174,0,2.229,0.251,3.153,0.752
				c0.928,0.502,1.706,1.202,2.333,2.104v-10.271h2.033v26.25h-1.914l-0.086-2.408c-0.648,0.892-1.446,1.568-2.396,2.046
				c-0.941,0.473-1.999,0.709-3.161,0.709c-1.22,0-2.286-0.27-3.202-0.798c-0.918-0.526-1.683-1.229-2.291-2.104
				c-0.606-0.872-1.064-1.874-1.375-3.008c-0.31-1.134-0.462-2.299-0.462-3.495L1174.686,562.76L1174.686,562.76z M1176.753,563.118
				c0,0.923,0.101,1.84,0.299,2.751c0.199,0.912,0.521,1.729,0.966,2.453c0.445,0.724,1.025,1.307,1.743,1.752
				c0.718,0.438,1.595,0.666,2.632,0.666c0.581,0,1.131-0.074,1.649-0.228c0.518-0.146,0.996-0.356,1.437-0.641
				c0.438-0.278,0.83-0.615,1.183-1.008c0.348-0.396,0.641-0.835,0.881-1.324v-8.955c-0.229-0.514-0.511-0.979-0.848-1.397
				c-0.339-0.426-0.725-0.785-1.152-1.099c-0.438-0.307-0.912-0.547-1.438-0.717c-0.521-0.172-1.082-0.257-1.676-0.257
				c-1.049,0-1.931,0.226-2.646,0.675c-0.719,0.45-1.305,1.037-1.75,1.761c-0.449,0.729-0.774,1.541-0.979,2.452
				c-0.197,0.912-0.299,1.828-0.299,2.752L1176.753,563.118L1176.753,563.118z"/>
		</g>
	</g>
	<g display="inline">
		<g>
			<path fill="#AAAAAA" d="M1489.42,503.231l0.137,1.738l0.205-1.738l3.623-19.243h1.777l3.623,19.243l0.205,1.794l0.154-1.794
				l2.546-19.243h1.913l-3.507,24.883h-2.03l-3.793-20.747l-3.812,20.747h-2.034l-3.503-24.883h1.932L1489.42,503.231z"/>
			<path fill="#AAAAAA" d="M1510.701,493.951c0.648-1.188,1.515-2.13,2.598-2.836c1.082-0.707,2.317-1.065,3.708-1.077
				c1.015,0,1.911,0.157,2.691,0.47c0.78,0.313,1.437,0.771,1.966,1.367c0.529,0.599,0.934,1.333,1.213,2.205
				c0.279,0.871,0.419,1.865,0.419,2.979v11.812h-2.051V497.06c0-0.815-0.097-1.556-0.29-2.2c-0.194-0.649-0.487-1.199-0.881-1.649
				c-0.393-0.449-0.887-0.794-1.479-1.034c-0.592-0.236-1.286-0.354-2.084-0.354c-0.649,0-1.271,0.103-1.862,0.308
				c-0.594,0.205-1.141,0.49-1.642,0.854c-0.502,0.361-0.948,0.796-1.342,1.289s-0.715,1.037-0.965,1.635v12.971h-2.052v-26.25
				h2.052L1510.701,493.951L1510.701,493.951z"/>
			<path fill="#AAAAAA" d="M1531.008,490.38h8.578v16.68h6.289v1.812h-14.867v-1.812h6.527v-14.851h-6.527V490.38z
				 M1536.938,485.321c0-0.421,0.119-0.786,0.359-1.099c0.238-0.308,0.639-0.462,1.195-0.462c0.547,0,0.943,0.154,1.188,0.462
				c0.244,0.312,0.367,0.678,0.367,1.099c0,0.396-0.123,0.749-0.367,1.051c-0.244,0.303-0.642,0.453-1.188,0.453
				c-0.559,0-0.957-0.15-1.195-0.453C1537.057,486.07,1536.938,485.721,1536.938,485.321z"/>
			<path fill="#AAAAAA" d="M1559.227,485.646v4.729h6.854v1.675h-6.854v11.644c0.016,0.717,0.123,1.312,0.334,1.78
				c0.211,0.479,0.496,0.854,0.854,1.146c0.358,0.29,0.78,0.498,1.267,0.624c0.482,0.125,1.01,0.188,1.579,0.188
				s1.153-0.04,1.752-0.114c0.599-0.08,1.107-0.16,1.529-0.24l0.31,1.556c-0.487,0.194-1.088,0.339-1.795,0.438
				c-0.707,0.097-1.426,0.146-2.151,0.146c-0.819,0-1.577-0.1-2.271-0.299c-0.692-0.199-1.299-0.521-1.812-0.957
				c-0.516-0.438-0.916-1.009-1.215-1.709c-0.297-0.701-0.448-1.558-0.461-2.572v-11.621H1552v-1.675h5.146v-4.729h2.084v-0.006
				L1559.227,485.646L1559.227,485.646z"/>
			<path fill="#AAAAAA" d="M1582.182,509.213c-1.287,0-2.461-0.239-3.52-0.718c-1.061-0.479-1.969-1.128-2.727-1.948
				c-0.763-0.82-1.35-1.78-1.765-2.88c-0.416-1.099-0.63-2.27-0.642-3.512v-0.735c0.012-1.321,0.229-2.552,0.654-3.688
				c0.432-1.144,1.015-2.135,1.752-2.978c0.739-0.844,1.611-1.507,2.613-1.991c1.004-0.479,2.079-0.727,3.23-0.727
				c1.229,0,2.317,0.222,3.264,0.667c0.946,0.443,1.74,1.051,2.385,1.819c0.646,0.77,1.133,1.667,1.471,2.688
				c0.34,1.025,0.514,2.125,0.521,3.298v1.247h-13.842v0.396c0.011,0.969,0.176,1.895,0.494,2.772
				c0.317,0.888,0.77,1.66,1.352,2.333c0.58,0.675,1.281,1.21,2.104,1.614c0.818,0.405,1.729,0.606,2.732,0.606
				c1.141,0.012,2.172-0.198,3.096-0.634c0.922-0.436,1.709-1.062,2.355-1.883l1.299,0.979c-0.342,0.479-0.745,0.92-1.213,1.322
				c-0.469,0.401-0.987,0.749-1.562,1.03c-0.572,0.285-1.205,0.511-1.89,0.667C1583.668,509.131,1582.945,509.213,1582.182,509.213z
				 M1581.789,491.781c-0.832,0-1.596,0.157-2.29,0.47c-0.695,0.313-1.306,0.75-1.829,1.308c-0.523,0.562-0.957,1.222-1.299,1.979
				c-0.342,0.758-0.575,1.587-0.7,2.482h11.706v-0.223c-0.021-0.763-0.162-1.507-0.418-2.229c-0.257-0.728-0.621-1.364-1.094-1.927
				c-0.475-0.559-1.051-1.009-1.734-1.351C1583.448,491.952,1582.666,491.781,1581.789,491.781z"/>
			<path fill="#AAAAAA" d="M1618.062,508.871v-24.883h6.802c1.002,0.012,1.979,0.146,2.931,0.396
				c0.951,0.262,1.797,0.649,2.538,1.185c0.74,0.524,1.336,1.202,1.786,2.017c0.449,0.814,0.669,1.785,0.656,2.914
				c0,0.706-0.107,1.341-0.323,1.905c-0.218,0.562-0.511,1.062-0.88,1.504c-0.371,0.438-0.807,0.815-1.309,1.145
				s-1.043,0.601-1.623,0.812c0.717,0.172,1.381,0.434,1.986,0.787c0.609,0.353,1.141,0.789,1.581,1.307
				c0.444,0.521,0.795,1.108,1.056,1.771c0.256,0.655,0.385,1.368,0.385,2.136c0.011,1.104-0.194,2.088-0.615,2.948
				c-0.422,0.855-0.991,1.589-1.709,2.188c-0.719,0.598-1.547,1.057-2.486,1.375c-0.938,0.319-1.923,0.485-2.947,0.496h-7.827
				L1618.062,508.871L1618.062,508.871z M1620.112,495.148h5.007c0.719-0.017,1.413-0.114,2.086-0.312
				c0.672-0.188,1.268-0.479,1.785-0.871c0.52-0.387,0.938-0.871,1.256-1.453c0.318-0.58,0.479-1.27,0.479-2.062
				c0-0.831-0.164-1.541-0.494-2.128c-0.332-0.586-0.77-1.064-1.312-1.438c-0.547-0.37-1.169-0.644-1.858-0.815
				c-0.695-0.181-1.408-0.271-2.142-0.281h-4.802L1620.112,495.148L1620.112,495.148z M1620.112,496.908v10.186h5.827
				c0.752-0.011,1.471-0.14,2.154-0.385c0.684-0.244,1.279-0.59,1.803-1.033c0.518-0.44,0.928-0.979,1.229-1.615
				c0.301-0.633,0.453-1.353,0.453-2.157c0-0.786-0.146-1.483-0.438-2.099c-0.291-0.604-0.688-1.125-1.195-1.547
				c-0.508-0.421-1.096-0.745-1.762-0.974c-0.666-0.229-1.363-0.354-2.094-0.376H1620.112L1620.112,496.908z"/>
			<path fill="#AAAAAA" d="M1655.373,505.914c-0.49,0.582-1.032,1.083-1.624,1.504c-0.593,0.422-1.222,0.767-1.89,1.034
				c-0.666,0.269-1.363,0.462-2.092,0.581c-0.729,0.12-1.476,0.18-2.228,0.18c-0.99-0.012-1.896-0.168-2.729-0.47
				c-0.826-0.302-1.565-0.718-2.229-1.248c-0.661-0.529-1.236-1.15-1.729-1.862c-0.488-0.712-0.896-1.479-1.225-2.299
				c-0.323-0.82-0.571-1.678-0.743-2.572c-0.172-0.894-0.263-1.785-0.271-2.674v-3.486c0.011-0.861,0.094-1.732,0.244-2.61
				c0.153-0.877,0.391-1.728,0.701-2.538c0.312-0.814,0.703-1.572,1.172-2.272s1.021-1.312,1.656-1.838
				c0.641-0.521,1.356-0.937,2.161-1.237c0.804-0.303,1.699-0.449,2.69-0.449c1.104,0,2.128,0.18,3.065,0.535
				c0.938,0.357,1.765,0.858,2.472,1.507c0.705,0.645,1.275,1.415,1.718,2.312c0.438,0.9,0.715,1.897,0.827,2.991h-2.017
				c-0.159-0.797-0.401-1.538-0.729-2.222c-0.325-0.688-0.737-1.271-1.239-1.765c-0.502-0.486-1.091-0.875-1.77-1.149
				c-0.682-0.278-1.449-0.418-2.315-0.418c-0.797,0-1.517,0.134-2.149,0.396c-0.642,0.271-1.199,0.627-1.687,1.076
				c-0.482,0.45-0.897,0.975-1.248,1.572c-0.349,0.599-0.634,1.231-0.854,1.914c-0.223,0.679-0.385,1.373-0.485,2.085
				c-0.104,0.713-0.158,1.399-0.171,2.076v3.521c0.013,0.694,0.074,1.407,0.193,2.136c0.119,0.729,0.301,1.438,0.539,2.128
				c0.237,0.69,0.541,1.347,0.905,1.957c0.362,0.615,0.8,1.153,1.308,1.614c0.508,0.462,1.086,0.826,1.733,1.094
				c0.647,0.271,1.386,0.408,2.204,0.419c0.514,0.017,1.043-0.014,1.591-0.072c0.548-0.062,1.077-0.181,1.599-0.347
				c0.521-0.165,1.002-0.39,1.451-0.675c0.45-0.284,0.84-0.644,1.172-1.076l0.021-6.426h-5.896v-1.777h7.847L1655.373,505.914z"/>
		</g>
	</g>
	<g display="inline">
		<g>
			<path fill="#AAAAAA" d="M1486.788,572.176v-24.883h6.802c1.002,0.012,1.979,0.146,2.932,0.401c0.95,0.257,1.801,0.646,2.537,1.18
				c0.74,0.529,1.336,1.202,1.786,2.017c0.449,0.814,0.669,1.785,0.657,2.914c0,0.706-0.108,1.346-0.324,1.905
				c-0.217,0.563-0.51,1.065-0.88,1.504c-0.371,0.438-0.807,0.82-1.308,1.146c-0.502,0.325-1.043,0.596-1.623,0.812
				c0.717,0.172,1.381,0.438,1.99,0.787c0.604,0.354,1.137,0.789,1.576,1.312c0.444,0.519,0.799,1.104,1.056,1.77
				c0.257,0.66,0.385,1.373,0.385,2.136c0.011,1.105-0.194,2.088-0.615,2.948c-0.422,0.86-0.991,1.589-1.709,2.188
				c-0.718,0.599-1.547,1.059-2.484,1.375c-0.938,0.316-1.925,0.482-2.945,0.493h-7.828L1486.788,572.176L1486.788,572.176z
				 M1488.839,558.453h5.007c0.719-0.012,1.413-0.114,2.086-0.312c0.672-0.188,1.271-0.479,1.785-0.866
				c0.521-0.392,0.938-0.871,1.256-1.453c0.319-0.58,0.479-1.271,0.479-2.067c0-0.831-0.165-1.541-0.495-2.128
				c-0.331-0.586-0.77-1.064-1.314-1.436c-0.548-0.37-1.17-0.646-1.859-0.82c-0.695-0.176-1.407-0.271-2.141-0.281h-4.803
				L1488.839,558.453L1488.839,558.453z M1488.839,560.213V570.4h5.827c0.752-0.016,1.471-0.145,2.154-0.39
				c0.684-0.244,1.284-0.59,1.803-1.029c0.518-0.444,0.928-0.982,1.23-1.614c0.302-0.633,0.448-1.354,0.448-2.162
				c0-0.786-0.146-1.483-0.437-2.094c-0.29-0.609-0.689-1.125-1.196-1.548c-0.507-0.425-1.094-0.744-1.76-0.978
				c-0.667-0.228-1.365-0.353-2.095-0.376L1488.839,560.213L1488.839,560.213z"/>
			<path fill="#AAAAAA" d="M1509.129,545.926h8.613v24.438h6.254v1.812h-14.867v-1.812h6.562v-22.61h-6.562V545.926
				L1509.129,545.926z"/>
			<path fill="#AAAAAA" d="M1543.244,572.176c-0.126-0.376-0.223-0.795-0.291-1.256c-0.068-0.462-0.114-0.932-0.137-1.41
				c-0.354,0.438-0.769,0.832-1.23,1.196c-0.468,0.365-0.979,0.681-1.529,0.948c-0.553,0.269-1.146,0.479-1.785,0.633
				c-0.64,0.153-1.306,0.229-2,0.229c-0.861,0-1.672-0.126-2.418-0.376s-1.396-0.604-1.944-1.06
				c-0.558-0.455-0.985-1.005-1.304-1.649c-0.312-0.644-0.469-1.359-0.469-2.156c0-1.062,0.232-1.961,0.699-2.701
				c0.469-0.74,1.1-1.341,1.896-1.803c0.797-0.466,1.721-0.805,2.77-1.021c1.048-0.216,2.146-0.325,3.299-0.325h3.998v-2.102
				c-0.011-0.694-0.146-1.312-0.41-1.837c-0.262-0.53-0.617-0.979-1.065-1.333c-0.447-0.359-0.983-0.63-1.604-0.812
				c-0.619-0.182-1.297-0.271-2.021-0.271c-0.662,0-1.291,0.086-1.894,0.257c-0.598,0.171-1.128,0.416-1.589,0.735
				c-0.462,0.313-0.835,0.709-1.12,1.17c-0.283,0.462-0.438,0.979-0.461,1.562l-2.051-0.018c0.031-0.786,0.238-1.515,0.624-2.17
				c0.381-0.661,0.896-1.233,1.546-1.723c0.646-0.479,1.404-0.858,2.266-1.137c0.86-0.271,1.779-0.41,2.765-0.41
				c0.979,0,1.896,0.126,2.76,0.376c0.859,0.251,1.604,0.627,2.238,1.128c0.633,0.502,1.134,1.128,1.504,1.881
				c0.369,0.754,0.562,1.634,0.572,2.636v8.954c0,0.611,0.055,1.232,0.159,1.858c0.106,0.627,0.24,1.229,0.4,1.795l0.021,0.205
				h-2.189v0.004L1543.244,572.176L1543.244,572.176z M1536.493,570.706c0.718,0.012,1.403-0.074,2.06-0.257
				c0.654-0.187,1.256-0.438,1.803-0.76c0.552-0.325,1.031-0.717,1.453-1.162c0.422-0.45,0.752-0.942,0.99-1.479v-4.051h-3.725
				c-0.9,0-1.768,0.067-2.598,0.205c-0.832,0.137-1.567,0.362-2.205,0.676c-0.644,0.313-1.148,0.732-1.529,1.256
				c-0.382,0.524-0.572,1.185-0.572,1.965c0,0.562,0.113,1.062,0.342,1.505c0.229,0.444,0.535,0.823,0.922,1.141
				c0.393,0.312,0.849,0.553,1.367,0.718C1535.325,570.624,1535.889,570.706,1536.493,570.706z"/>
			<path fill="#AAAAAA" d="M1559.91,570.791c0.684,0,1.336-0.099,1.957-0.299c0.62-0.199,1.17-0.486,1.648-0.863
				c0.479-0.375,0.864-0.828,1.17-1.354c0.303-0.529,0.477-1.135,0.521-1.808h1.966c-0.046,0.878-0.271,1.688-0.684,2.432
				c-0.41,0.736-0.946,1.379-1.607,1.909c-0.66,0.536-1.418,0.954-2.271,1.261c-0.854,0.302-1.754,0.448-2.696,0.448
				c-1.354,0-2.535-0.256-3.537-0.77c-1.003-0.512-1.838-1.195-2.504-2.051c-0.667-0.854-1.168-1.837-1.504-2.947
				c-0.341-1.111-0.507-2.265-0.507-3.461v-0.718c0-1.196,0.166-2.354,0.507-3.461c0.336-1.11,0.837-2.098,1.504-2.948
				c0.666-0.854,1.501-1.537,2.504-2.051c1.002-0.517,2.176-0.771,3.521-0.771c1.023,0,1.978,0.162,2.849,0.487
				c0.872,0.323,1.629,0.78,2.271,1.367c0.646,0.587,1.151,1.276,1.527,2.085c0.376,0.803,0.587,1.683,0.634,2.64h-1.967
				c-0.033-0.694-0.192-1.338-0.479-1.931c-0.285-0.596-0.66-1.104-1.127-1.538c-0.471-0.438-1.02-0.771-1.647-1.009
				c-0.632-0.239-1.317-0.358-2.062-0.358c-1.067,0-1.982,0.217-2.74,0.646c-0.76,0.438-1.377,1.007-1.854,1.709
				c-0.479,0.707-0.827,1.511-1.052,2.4c-0.225,0.896-0.333,1.803-0.333,2.729v0.718c0,0.935,0.108,1.852,0.333,2.752
				c0.225,0.896,0.571,1.7,1.052,2.397c0.479,0.699,1.099,1.271,1.854,1.699C1557.907,570.575,1558.827,570.791,1559.91,570.791z"/>
			<path fill="#AAAAAA" d="M1579.362,562.828l-2.614,2.341v7.007h-2.068v-26.25h2.068v16.885l2.204-2.17l7.503-6.955h2.614
				l-8.255,7.797l9.104,10.693h-2.632L1579.362,562.828z"/>
			<path fill="#AAAAAA" d="M1618.062,572.176v-24.883h6.802c1.002,0.012,1.979,0.146,2.931,0.401
				c0.951,0.257,1.797,0.646,2.538,1.18c0.74,0.529,1.336,1.202,1.786,2.017c0.449,0.814,0.669,1.785,0.656,2.914
				c0,0.706-0.107,1.346-0.323,1.905c-0.218,0.563-0.511,1.065-0.88,1.504c-0.371,0.438-0.807,0.82-1.309,1.146
				s-1.043,0.596-1.623,0.812c0.717,0.172,1.381,0.438,1.986,0.787c0.609,0.354,1.141,0.789,1.581,1.312
				c0.444,0.519,0.795,1.104,1.056,1.77c0.256,0.66,0.385,1.373,0.385,2.136c0.011,1.105-0.194,2.088-0.615,2.948
				c-0.422,0.86-0.991,1.589-1.709,2.188c-0.719,0.6-1.547,1.059-2.486,1.375c-0.938,0.316-1.923,0.482-2.947,0.493h-7.827
				L1618.062,572.176L1618.062,572.176z M1620.112,558.453h5.007c0.719-0.012,1.413-0.114,2.086-0.312
				c0.672-0.188,1.268-0.479,1.785-0.866c0.52-0.392,0.938-0.871,1.256-1.453c0.318-0.58,0.479-1.271,0.479-2.067
				c0-0.831-0.164-1.541-0.494-2.128c-0.332-0.586-0.77-1.064-1.312-1.436c-0.547-0.37-1.169-0.646-1.858-0.82
				c-0.695-0.176-1.408-0.271-2.142-0.281h-4.802L1620.112,558.453L1620.112,558.453z M1620.112,560.213V570.4h5.827
				c0.752-0.016,1.471-0.145,2.154-0.39c0.684-0.244,1.279-0.59,1.803-1.029c0.518-0.444,0.928-0.982,1.229-1.614
				c0.303-0.633,0.453-1.354,0.453-2.162c0-0.786-0.146-1.483-0.438-2.094c-0.291-0.609-0.688-1.125-1.195-1.548
				c-0.508-0.425-1.096-0.744-1.762-0.978c-0.666-0.228-1.363-0.353-2.094-0.376L1620.112,560.213L1620.112,560.213z"/>
			<path fill="#AAAAAA" d="M1655.373,569.219c-0.49,0.582-1.032,1.083-1.624,1.504c-0.593,0.422-1.222,0.771-1.89,1.034
				c-0.666,0.271-1.363,0.462-2.092,0.581c-0.729,0.12-1.476,0.18-2.228,0.18c-0.99-0.012-1.896-0.168-2.729-0.47
				c-0.826-0.302-1.565-0.718-2.229-1.248c-0.661-0.524-1.236-1.146-1.729-1.857c-0.488-0.716-0.896-1.479-1.225-2.304
				c-0.323-0.815-0.571-1.678-0.743-2.567c-0.172-0.896-0.263-1.785-0.271-2.678v-3.482c0.011-0.866,0.094-1.737,0.244-2.615
				c0.153-0.877,0.391-1.723,0.701-2.538c0.312-0.812,0.703-1.57,1.172-2.271c0.469-0.701,1.021-1.313,1.656-1.839
				c0.641-0.522,1.356-0.938,2.161-1.237c0.804-0.303,1.699-0.453,2.69-0.453c1.104,0,2.128,0.18,3.065,0.538
				c0.938,0.357,1.765,0.859,2.472,1.504c0.705,0.646,1.275,1.416,1.718,2.315c0.438,0.896,0.715,1.896,0.827,2.986h-2.017
				c-0.159-0.797-0.401-1.538-0.729-2.222s-0.737-1.271-1.239-1.76c-0.502-0.49-1.091-0.875-1.77-1.154
				c-0.682-0.277-1.449-0.418-2.315-0.418c-0.797,0-1.517,0.134-2.149,0.401c-0.642,0.268-1.199,0.627-1.687,1.073
				c-0.482,0.448-0.897,0.978-1.248,1.57c-0.349,0.604-0.634,1.236-0.854,1.914c-0.223,0.679-0.385,1.373-0.485,2.085
				c-0.104,0.713-0.158,1.404-0.171,2.076v3.521c0.013,0.692,0.074,1.405,0.193,2.139c0.119,0.729,0.301,1.438,0.539,2.128
				c0.237,0.688,0.541,1.342,0.905,1.957c0.362,0.614,0.8,1.148,1.308,1.61c0.508,0.465,1.086,0.825,1.733,1.098
				c0.647,0.269,1.386,0.406,2.204,0.419c0.514,0.012,1.043-0.017,1.591-0.077c0.548-0.062,1.077-0.176,1.599-0.342
				c0.521-0.165,1.002-0.395,1.451-0.676c0.45-0.283,0.84-0.646,1.172-1.075l0.021-6.429h-5.896v-1.774h7.847L1655.373,569.219z"/>
		</g>
	</g>
	<g display="inline">
		<g>
			<path fill="#AAAAAA" d="M263.22,827.793h-11.006v11.621h-2.051v-24.883h14.714v1.795h-12.663v9.672h11.006L263.22,827.793
				L263.22,827.793z"/>
			<path fill="#AAAAAA" d="M283.988,820.581c0.512,0,1.025,0.031,1.537,0.094c0.514,0.063,0.94,0.151,1.282,0.27l-0.257,1.966
				c-0.479-0.104-0.957-0.187-1.436-0.239c-0.479-0.057-0.968-0.086-1.469-0.086c-1.732,0-3.202,0.41-4.41,1.229
				c-1.207,0.818-2.057,2.078-2.546,3.775l0.017,11.826h-2.119v-18.491h1.966l0.137,3.213v0.376c0.752-1.219,1.749-2.179,2.991-2.88
				C280.923,820.932,282.358,820.581,283.988,820.581z"/>
			<path fill="#AAAAAA" d="M292.57,829.895c0.012-1.253,0.205-2.438,0.582-3.566c0.375-1.128,0.914-2.116,1.614-2.965
				c0.701-0.854,1.561-1.523,2.581-2.025c1.02-0.501,2.173-0.752,3.461-0.752c1.299,0,2.457,0.251,3.478,0.752
				c1.02,0.502,1.882,1.177,2.589,2.025c0.706,0.849,1.248,1.837,1.623,2.965c0.377,1.128,0.57,2.313,0.582,3.566v0.564
				c-0.012,1.254-0.203,2.443-0.573,3.572c-0.37,1.127-0.908,2.116-1.614,2.965c-0.707,0.849-1.567,1.521-2.581,2.017
				c-1.015,0.495-2.171,0.743-3.47,0.743c-1.299,0-2.458-0.248-3.478-0.743c-1.021-0.491-1.883-1.168-2.589-2.017
				c-0.707-0.849-1.248-1.838-1.623-2.965c-0.377-1.129-0.57-2.318-0.582-3.572V829.895z M294.621,830.459
				c0,0.98,0.137,1.926,0.41,2.837c0.273,0.912,0.673,1.718,1.197,2.418c0.523,0.701,1.17,1.263,1.939,1.688
				c0.769,0.422,1.66,0.632,2.674,0.632c1.003,0,1.889-0.21,2.658-0.632c0.769-0.426,1.412-0.982,1.931-1.688
				c0.519-0.7,0.915-1.506,1.188-2.418c0.273-0.911,0.41-1.856,0.41-2.837v-0.564c0-0.968-0.137-1.902-0.41-2.814
				c-0.273-0.911-0.673-1.718-1.197-2.418c-0.523-0.701-1.173-1.27-1.947-1.692c-0.775-0.427-1.664-0.641-2.666-0.641
				c-1.003,0-1.889,0.214-2.658,0.641c-0.769,0.428-1.413,0.991-1.931,1.692c-0.519,0.7-0.915,1.507-1.188,2.418
				c-0.273,0.912-0.41,1.852-0.41,2.814V830.459L294.621,830.459z"/>
			<path fill="#AAAAAA" d="M317.389,820.923l0.154,3.47c0.649-1.146,1.515-2.066,2.598-2.761c1.082-0.688,2.312-1.039,3.691-1.051
				c2.027,0,3.577,0.604,4.648,1.82c1.07,1.213,1.612,2.937,1.623,5.169v11.844h-2.051v-11.812c-0.011-1.693-0.398-3-1.162-3.9
				c-0.763-0.906-1.947-1.354-3.555-1.344c-0.66,0-1.29,0.105-1.888,0.322c-0.599,0.217-1.146,0.517-1.641,0.894
				c-0.496,0.375-0.935,0.815-1.316,1.332c-0.382,0.514-0.692,1.066-0.931,1.676v12.834h-2.051v-18.491L317.389,820.923
				L317.389,820.923z"/>
			<path fill="#AAAAAA" d="M344.207,816.189v4.729h6.854v1.675h-6.854v11.644c0.011,0.717,0.122,1.312,0.333,1.783
				c0.211,0.476,0.496,0.854,0.854,1.146c0.359,0.29,0.78,0.498,1.265,0.624c0.484,0.125,1.011,0.188,1.581,0.188
				c0.569,0,1.153-0.036,1.752-0.115c0.598-0.08,1.107-0.16,1.529-0.24l0.308,1.556c-0.49,0.194-1.088,0.339-1.794,0.438
				c-0.707,0.097-1.425,0.146-2.154,0.146c-0.82,0-1.578-0.1-2.272-0.299c-0.695-0.199-1.299-0.52-1.812-0.957
				c-0.513-0.438-0.917-1.009-1.213-1.709c-0.297-0.701-0.451-1.558-0.462-2.572V822.6h-5.144v-1.675h5.144v-4.729h2.085V816.189z"
				/>
		</g>
	</g>
	<g display="inline">
		<g>
			<path fill="#AAAAAA" d="M249.89,903.732V878.85h6.802c1.002,0.017,1.979,0.146,2.931,0.401c0.951,0.257,1.797,0.649,2.538,1.18
				c0.74,0.529,1.336,1.202,1.786,2.021c0.449,0.812,0.669,1.785,0.657,2.914c0,0.706-0.108,1.341-0.324,1.9
				c-0.217,0.563-0.51,1.065-0.88,1.505c-0.371,0.438-0.807,0.819-1.308,1.146c-0.502,0.325-1.043,0.596-1.623,0.812
				c0.717,0.173,1.381,0.435,1.99,0.783c0.609,0.354,1.137,0.789,1.581,1.312c0.444,0.519,0.795,1.104,1.051,1.77
				c0.257,0.66,0.385,1.373,0.385,2.141c0.011,1.104-0.194,2.088-0.615,2.943c-0.422,0.86-0.991,1.589-1.709,2.188
				c-0.718,0.598-1.547,1.057-2.486,1.375c-0.94,0.314-1.923,0.48-2.948,0.496h-7.828V903.732z M251.94,890.01h5.007
				c0.719-0.012,1.413-0.109,2.086-0.309c0.672-0.193,1.267-0.483,1.785-0.871c0.519-0.387,0.938-0.871,1.256-1.453
				c0.319-0.58,0.479-1.27,0.479-2.067c0-0.831-0.165-1.541-0.495-2.128c-0.331-0.586-0.769-1.062-1.315-1.436
				c-0.547-0.37-1.169-0.646-1.863-0.82c-0.695-0.176-1.407-0.271-2.137-0.281h-4.802L251.94,890.01L251.94,890.01z M251.94,891.77
				v10.188h5.827c0.752-0.011,1.471-0.14,2.154-0.385c0.684-0.244,1.284-0.591,1.803-1.033c0.518-0.445,0.928-0.983,1.23-1.615
				c0.302-0.633,0.453-1.353,0.453-2.162c0-0.786-0.146-1.479-0.438-2.094c-0.29-0.609-0.688-1.125-1.196-1.547
				c-0.507-0.421-1.094-0.745-1.76-0.974c-0.667-0.229-1.365-0.354-2.094-0.381L251.94,891.77L251.94,891.77z"/>
			<path fill="#AAAAAA" d="M284.467,903.732c-0.126-0.376-0.223-0.795-0.291-1.261c-0.068-0.462-0.114-0.932-0.137-1.405
				c-0.354,0.434-0.764,0.832-1.23,1.191c-0.468,0.365-0.978,0.686-1.529,0.948c-0.553,0.269-1.148,0.479-1.786,0.633
				c-0.639,0.153-1.305,0.23-1.999,0.23c-0.866,0-1.673-0.126-2.419-0.376s-1.396-0.604-1.948-1.062
				c-0.553-0.455-0.985-1.005-1.299-1.646c-0.313-0.646-0.47-1.364-0.47-2.161c0-1.062,0.233-1.96,0.7-2.701
				c0.468-0.74,1.1-1.341,1.897-1.803c0.797-0.461,1.72-0.801,2.769-1.021c1.048-0.216,2.147-0.322,3.299-0.322h3.998v-2.104
				c-0.011-0.693-0.147-1.308-0.41-1.837c-0.262-0.53-0.618-0.976-1.067-1.333c-0.45-0.359-0.986-0.63-1.606-0.812
				c-0.621-0.183-1.297-0.271-2.025-0.271c-0.661,0-1.29,0.086-1.889,0.257c-0.598,0.171-1.128,0.416-1.589,0.735
				c-0.462,0.313-0.835,0.709-1.12,1.17c-0.284,0.462-0.438,0.979-0.461,1.562l-2.051-0.018c0.034-0.786,0.242-1.51,0.624-2.17
				c0.381-0.661,0.897-1.233,1.546-1.719c0.65-0.483,1.404-0.862,2.265-1.141c0.861-0.271,1.78-0.409,2.761-0.409
				c0.979,0,1.899,0.126,2.76,0.376c0.859,0.251,1.606,0.628,2.238,1.131c0.633,0.502,1.134,1.129,1.504,1.881
				s0.562,1.63,0.572,2.632v8.955c0,0.614,0.055,1.232,0.163,1.859c0.107,0.628,0.241,1.229,0.401,1.796l0.018,0.204h-2.189V903.732
				z M277.716,902.263c0.718,0.017,1.404-0.069,2.06-0.257c0.654-0.182,1.256-0.436,1.803-0.76c0.547-0.325,1.031-0.712,1.453-1.162
				c0.421-0.45,0.752-0.942,0.99-1.479v-4.056h-3.725c-0.9,0-1.767,0.068-2.598,0.205c-0.832,0.142-1.567,0.362-2.205,0.676
				c-0.639,0.313-1.148,0.732-1.529,1.261c-0.382,0.521-0.572,1.18-0.572,1.965c0,0.559,0.113,1.061,0.342,1.504
				c0.228,0.445,0.535,0.824,0.922,1.137c0.388,0.313,0.844,0.553,1.367,0.719C276.548,902.181,277.111,902.263,277.716,902.263z"/>
			<path fill="#AAAAAA" d="M301.133,902.348c0.684,0,1.336-0.099,1.957-0.299c0.62-0.199,1.17-0.486,1.648-0.863
				c0.479-0.375,0.869-0.823,1.171-1.354c0.302-0.529,0.476-1.13,0.521-1.803h1.966c-0.046,0.878-0.273,1.687-0.684,2.427
				c-0.41,0.741-0.946,1.379-1.607,1.914c-0.66,0.536-1.418,0.954-2.272,1.256s-1.755,0.453-2.7,0.453
				c-1.356,0-2.535-0.256-3.537-0.771c-1.003-0.512-1.838-1.19-2.504-2.051c-0.667-0.854-1.168-1.837-1.504-2.947
				c-0.337-1.106-0.504-2.265-0.504-3.461v-0.718c0-1.196,0.167-2.35,0.504-3.461c0.336-1.11,0.837-2.093,1.504-2.948
				c0.666-0.854,1.501-1.537,2.504-2.051c1.002-0.512,2.176-0.769,3.52-0.769c1.025,0,1.975,0.157,2.846,0.482
				c0.872,0.324,1.629,0.78,2.273,1.367s1.153,1.281,1.529,2.085c0.376,0.803,0.587,1.687,0.633,2.644h-1.966
				c-0.034-0.693-0.194-1.342-0.479-1.935c-0.285-0.592-0.661-1.104-1.128-1.538c-0.468-0.433-1.017-0.77-1.649-1.008
				c-0.632-0.24-1.318-0.359-2.06-0.359c-1.07,0-1.985,0.222-2.742,0.649c-0.758,0.434-1.376,1.003-1.854,1.709
				c-0.479,0.707-0.829,1.507-1.051,2.401c-0.223,0.895-0.333,1.803-0.333,2.726v0.718c0,0.938,0.11,1.854,0.333,2.752
				c0.222,0.899,0.572,1.7,1.051,2.4c0.479,0.701,1.097,1.268,1.854,1.701C299.13,902.13,300.05,902.348,301.133,902.348z"/>
			<path fill="#AAAAAA" d="M320.585,894.385l-2.614,2.341v7.012h-2.068v-26.25h2.068v16.885l2.204-2.17l7.503-6.956h2.614
				l-8.255,7.793l9.109,10.698h-2.632L320.585,894.385z"/>
		</g>
	</g>
	<g display="inline">
		<g>
			<path fill="#AAAAAA" d="M1738.975,1012.611h9.045v1.27h-10.511V996.11h1.466V1012.611z"/>
			<path fill="#AAAAAA" d="M1753.146,1000.673h6.129v11.914h4.492v1.294h-10.621v-1.294h4.664v-10.608h-4.664V1000.673z
				 M1757.384,997.06c0-0.301,0.087-0.562,0.257-0.776c0.172-0.225,0.455-0.329,0.854-0.329c0.391,0,0.673,0.104,0.848,0.329
				c0.175,0.22,0.263,0.479,0.263,0.776c0,0.285-0.088,0.535-0.263,0.751c-0.175,0.221-0.457,0.323-0.848,0.323
				c-0.399,0-0.685-0.104-0.854-0.323C1757.47,997.595,1757.384,997.345,1757.384,997.06z"/>
			<path fill="#AAAAAA" d="M1773.792,1012.893c0.488,0,0.954-0.066,1.397-0.214c0.438-0.143,0.836-0.349,1.179-0.616
				c0.342-0.27,0.62-0.593,0.836-0.971c0.215-0.379,0.34-0.808,0.372-1.288h1.402c-0.031,0.627-0.194,1.204-0.488,1.733
				c-0.293,0.529-0.674,0.979-1.146,1.367c-0.473,0.383-1.014,0.682-1.624,0.896c-0.608,0.215-1.253,0.323-1.929,0.323
				c-0.971,0-1.812-0.188-2.527-0.549c-0.716-0.367-1.312-0.855-1.787-1.467c-0.477-0.609-0.834-1.312-1.074-2.104
				c-0.236-0.793-0.356-1.617-0.356-2.472v-0.518c0-0.854,0.12-1.679,0.356-2.472c0.24-0.794,0.603-1.496,1.074-2.104
				c0.479-0.608,1.071-1.102,1.787-1.467c0.719-0.365,1.557-0.55,2.518-0.55c0.73,0,1.408,0.116,2.031,0.351
				c0.621,0.229,1.162,0.56,1.623,0.979c0.461,0.42,0.823,0.916,1.094,1.489c0.271,0.569,0.418,1.203,0.451,1.887h-1.4
				c-0.024-0.497-0.143-0.957-0.346-1.38c-0.199-0.423-0.473-0.789-0.807-1.102c-0.334-0.312-0.727-0.551-1.178-0.723
				c-0.452-0.17-0.941-0.256-1.471-0.256c-0.768,0-1.419,0.154-1.96,0.464c-0.541,0.312-0.982,0.716-1.324,1.226
				c-0.342,0.505-0.592,1.071-0.751,1.715c-0.158,0.64-0.238,1.288-0.238,1.942v0.518c0,0.667,0.08,1.318,0.238,1.965
				c0.159,0.644,0.409,1.215,0.751,1.716c0.342,0.5,0.783,0.905,1.324,1.214C1772.361,1012.737,1773.02,1012.893,1773.792,1012.893z
				"/>
			<path fill="#AAAAAA" d="M1789.7,1014.125c-0.921,0-1.759-0.171-2.517-0.513c-0.76-0.347-1.404-0.811-1.945-1.396
				c-0.543-0.586-0.961-1.271-1.258-2.057c-0.299-0.786-0.449-1.622-0.459-2.509v-0.524c0.01-0.942,0.166-1.823,0.471-2.637
				c0.306-0.814,0.723-1.522,1.252-2.125c0.529-0.604,1.15-1.075,1.867-1.422c0.717-0.351,1.48-0.521,2.308-0.521
				c0.879,0,1.655,0.159,2.332,0.479c0.675,0.313,1.241,0.751,1.702,1.301c0.46,0.549,0.81,1.188,1.05,1.922
				s0.364,1.519,0.373,2.356v0.892h-9.89v0.28c0.01,0.688,0.127,1.354,0.354,1.979c0.229,0.631,0.551,1.188,0.964,1.666
				c0.416,0.48,0.916,0.865,1.502,1.154s1.237,0.434,1.953,0.434c0.812,0.013,1.552-0.143,2.209-0.447
				c0.66-0.312,1.222-0.762,1.687-1.348l0.932,0.695c-0.244,0.342-0.533,0.658-0.867,0.946c-0.334,0.289-0.706,0.535-1.113,0.737
				c-0.412,0.2-0.859,0.358-1.353,0.478S1790.245,1014.125,1789.7,1014.125z M1789.419,1001.674c-0.594,0-1.14,0.112-1.636,0.336
				c-0.496,0.229-0.932,0.535-1.307,0.938c-0.375,0.396-0.688,0.869-0.932,1.405c-0.244,0.541-0.411,1.138-0.501,1.775h8.362v-0.158
				c-0.021-0.545-0.116-1.076-0.305-1.593c-0.183-0.517-0.438-0.975-0.776-1.374c-0.338-0.398-0.751-0.72-1.239-0.964
				C1790.602,1001.796,1790.046,1001.674,1789.419,1001.674z"/>
			<path fill="#AAAAAA" d="M1801.03,1000.673l0.108,2.479c0.465-0.821,1.082-1.479,1.854-1.976c0.771-0.492,1.65-0.742,2.637-0.751
				c1.448,0,2.559,0.438,3.32,1.3c0.765,0.867,1.146,2.103,1.158,3.693v8.459h-1.465v-8.436c-0.012-1.212-0.285-2.146-0.83-2.789
				c-0.547-0.646-1.396-0.968-2.537-0.958c-0.477,0-0.924,0.077-1.354,0.229c-0.428,0.155-0.814,0.367-1.173,0.639
				c-0.354,0.271-0.667,0.587-0.938,0.949c-0.272,0.365-0.494,0.77-0.666,1.195v9.168h-1.467v-13.208L1801.03,1000.673
				L1801.03,1000.673z"/>
			<path fill="#AAAAAA" d="M1824.53,1010.523c0-0.406-0.104-0.766-0.306-1.062c-0.203-0.3-0.481-0.56-0.841-0.775
				c-0.354-0.215-0.763-0.396-1.227-0.543c-0.468-0.146-0.956-0.271-1.479-0.378c-0.635-0.131-1.249-0.287-1.843-0.471
				c-0.594-0.183-1.123-0.417-1.587-0.701c-0.464-0.285-0.834-0.633-1.111-1.044c-0.273-0.411-0.41-0.918-0.41-1.521
				c0-0.569,0.143-1.078,0.426-1.525c0.285-0.447,0.66-0.826,1.123-1.135c0.466-0.312,0.994-0.544,1.589-0.702
				c0.594-0.159,1.202-0.238,1.831-0.238c0.716,0,1.386,0.088,2.008,0.264c0.623,0.179,1.168,0.436,1.636,0.771
				c0.47,0.338,0.843,0.751,1.117,1.239c0.274,0.483,0.428,1.046,0.451,1.672h-1.465c-0.017-0.423-0.132-0.803-0.343-1.146
				c-0.211-0.338-0.491-0.617-0.846-0.849c-0.35-0.229-0.744-0.403-1.188-0.523s-0.901-0.185-1.373-0.185
				c-0.439,0-0.869,0.047-1.288,0.141c-0.419,0.099-0.793,0.236-1.123,0.432c-0.329,0.188-0.597,0.432-0.793,0.721
				c-0.2,0.289-0.299,0.628-0.299,1.021c-0.013,0.416,0.087,0.767,0.282,1.046c0.199,0.277,0.474,0.519,0.812,0.706
				c0.344,0.189,0.743,0.354,1.203,0.479c0.459,0.126,0.949,0.242,1.471,0.349c0.667,0.143,1.307,0.312,1.91,0.509
				c0.604,0.196,1.145,0.444,1.604,0.741c0.467,0.302,0.83,0.661,1.102,1.098c0.271,0.432,0.4,0.943,0.4,1.551
				c0,0.618-0.146,1.157-0.443,1.617s-0.688,0.842-1.172,1.146c-0.484,0.308-1.037,0.533-1.66,0.688
				c-0.622,0.146-1.266,0.226-1.923,0.226c-0.74,0-1.438-0.09-2.097-0.269c-0.651-0.184-1.229-0.438-1.729-0.775
				c-0.501-0.337-0.899-0.751-1.203-1.238c-0.301-0.485-0.463-1.041-0.487-1.658h1.467c0.049,0.521,0.207,0.956,0.471,1.309
				c0.266,0.35,0.592,0.629,0.979,0.836c0.387,0.208,0.811,0.354,1.268,0.438c0.453,0.087,0.898,0.131,1.343,0.131
				c0.446,0,0.896-0.049,1.337-0.145c0.441-0.094,0.844-0.234,1.195-0.428c0.354-0.188,0.644-0.438,0.865-0.731
				C1824.406,1011.295,1824.521,1010.939,1824.53,1010.523z"/>
			<path fill="#AAAAAA" d="M1836.581,1014.125c-0.92,0-1.758-0.171-2.517-0.513c-0.756-0.347-1.404-0.811-1.945-1.396
				c-0.542-0.586-0.961-1.271-1.258-2.057s-0.449-1.622-0.459-2.509v-0.524c0.01-0.942,0.166-1.823,0.472-2.637
				c0.306-0.814,0.722-1.522,1.251-2.125c0.529-0.604,1.15-1.075,1.868-1.422c0.716-0.351,1.483-0.521,2.308-0.521
				c0.879,0,1.655,0.159,2.332,0.479c0.674,0.313,1.241,0.751,1.701,1.301c0.46,0.549,0.812,1.188,1.051,1.922
				c0.239,0.733,0.363,1.519,0.373,2.356v0.892h-9.89v0.28c0.009,0.688,0.127,1.354,0.354,1.979
				c0.228,0.631,0.549,1.188,0.963,1.666c0.416,0.48,0.916,0.865,1.502,1.154s1.236,0.434,1.953,0.434
				c0.812,0.013,1.551-0.143,2.209-0.447c0.66-0.312,1.221-0.762,1.687-1.348l0.929,0.695c-0.244,0.342-0.533,0.658-0.867,0.946
				c-0.334,0.289-0.707,0.535-1.113,0.737c-0.411,0.2-0.86,0.358-1.354,0.478
				C1837.643,1014.067,1837.126,1014.125,1836.581,1014.125z M1836.3,1001.674c-0.594,0-1.14,0.112-1.636,0.336
				c-0.496,0.229-0.932,0.535-1.307,0.938c-0.375,0.396-0.688,0.869-0.928,1.405c-0.244,0.541-0.41,1.138-0.5,1.775h8.357v-0.158
				c-0.02-0.545-0.115-1.076-0.3-1.593c-0.187-0.517-0.443-0.975-0.781-1.374c-0.338-0.398-0.751-0.72-1.239-0.964
				C1837.482,1001.796,1836.927,1001.674,1836.3,1001.674z"/>
			<path fill="#AAAAAA" d="M1855.784,1010.523c0-0.406-0.103-0.766-0.306-1.062s-0.481-0.56-0.836-0.775
				c-0.354-0.215-0.768-0.396-1.229-0.543c-0.464-0.146-0.956-0.271-1.479-0.378c-0.636-0.131-1.25-0.287-1.844-0.471
				c-0.594-0.183-1.123-0.417-1.587-0.701c-0.464-0.285-0.834-0.633-1.11-1.044c-0.272-0.411-0.414-0.918-0.414-1.521
				c0-0.569,0.146-1.078,0.431-1.525c0.28-0.447,0.655-0.826,1.123-1.135c0.464-0.312,0.989-0.544,1.587-0.702
				c0.594-0.159,1.204-0.238,1.831-0.238c0.716,0,1.386,0.088,2.008,0.264c0.623,0.179,1.168,0.436,1.64,0.771
				c0.469,0.338,0.842,0.751,1.113,1.239c0.276,0.483,0.432,1.046,0.451,1.672h-1.465c-0.02-0.423-0.13-0.803-0.345-1.146
				c-0.211-0.338-0.489-0.617-0.843-0.849c-0.351-0.229-0.748-0.403-1.188-0.523c-0.443-0.12-0.9-0.185-1.373-0.185
				c-0.438,0-0.869,0.047-1.288,0.141c-0.419,0.099-0.793,0.236-1.123,0.432c-0.329,0.188-0.594,0.432-0.793,0.721
				c-0.2,0.289-0.299,0.628-0.299,1.021c-0.013,0.416,0.087,0.767,0.286,1.046c0.195,0.277,0.47,0.519,0.812,0.706
				c0.345,0.189,0.742,0.354,1.203,0.479c0.459,0.126,0.949,0.242,1.474,0.349c0.668,0.143,1.305,0.312,1.907,0.509
				c0.605,0.196,1.146,0.444,1.604,0.741c0.464,0.302,0.829,0.661,1.099,1.098c0.271,0.432,0.403,0.943,0.403,1.551
				c0,0.618-0.149,1.157-0.446,1.617s-0.688,0.842-1.172,1.146c-0.482,0.308-1.037,0.533-1.66,0.688
				c-0.621,0.146-1.263,0.226-1.923,0.226c-0.739,0-1.438-0.09-2.095-0.269c-0.653-0.184-1.23-0.438-1.73-0.775
				c-0.502-0.337-0.897-0.751-1.203-1.238c-0.302-0.485-0.463-1.041-0.485-1.658h1.465c0.049,0.521,0.207,0.956,0.472,1.309
				c0.266,0.35,0.59,0.629,0.979,0.836c0.387,0.208,0.811,0.354,1.267,0.438c0.454,0.087,0.899,0.131,1.343,0.131
				c0.446,0,0.896-0.049,1.338-0.145c0.441-0.094,0.845-0.234,1.194-0.428c0.354-0.188,0.645-0.438,0.866-0.731
				C1855.66,1011.295,1855.775,1010.939,1855.784,1010.523z"/>
		</g>
	</g>
</g>
<g id="Lines">
	
		<line fill="none" stroke="#AAAAAA" stroke-width="1.114" stroke-miterlimit="10" x1="832.917" y1="206.319" x2="153.786" y2="206.319"/>
	
		<line fill="none" stroke="#AAAAAA" stroke-width="1.114" stroke-miterlimit="10" x1="1694.996" y1="206.319" x2="975.865" y2="206.319"/>
	
		<line fill="none" stroke="#AAAAAA" stroke-width="1.114" stroke-miterlimit="10" x1="837.041" y1="735.863" x2="156.63" y2="735.863"/>
	<rect x="1737.333" y="1020.667" fill="#AAAAAA" width="120.667" height="1.667"/>
</g>
<g id="Titles" display="none">
	<g display="inline">
		<g>
			<path fill="#FFFFFF" d="M1000.071,163.521c0-0.83-0.126-1.574-0.38-2.234c-0.252-0.658-0.604-1.248-1.053-1.77
				c-0.443-0.521-0.965-0.98-1.551-1.379s-1.213-0.753-1.88-1.062c-0.668-0.309-1.354-0.586-2.051-0.83
				c-0.7-0.244-1.376-0.472-2.026-0.684c-0.83-0.26-1.672-0.549-2.523-0.867c-0.854-0.316-1.688-0.684-2.489-1.098
				c-0.81-0.416-1.562-0.888-2.271-1.416c-0.709-0.529-1.327-1.127-1.854-1.795c-0.529-0.667-0.944-1.412-1.246-2.234
				c-0.302-0.821-0.451-1.736-0.451-2.746c0-1.48,0.33-2.791,0.988-3.931c0.659-1.139,1.518-2.1,2.575-2.881
				c1.059-0.781,2.25-1.371,3.572-1.771c1.327-0.398,2.665-0.598,4.021-0.598c1.514,0,2.954,0.248,4.32,0.744
				c1.363,0.497,2.563,1.193,3.603,2.088c1.033,0.896,1.858,1.981,2.478,3.26c0.618,1.277,0.952,2.697,1.002,4.26H999.9
				c-0.131-1.155-0.415-2.209-0.854-3.162c-0.438-0.951-1.024-1.77-1.758-2.453c-0.734-0.683-1.591-1.217-2.576-1.6
				c-0.983-0.382-2.071-0.573-3.259-0.573c-0.993,0-1.975,0.134-2.942,0.403c-0.968,0.268-1.839,0.675-2.606,1.221
				c-0.773,0.545-1.4,1.229-1.885,2.051c-0.479,0.821-0.721,1.786-0.721,2.893c0,1.188,0.28,2.197,0.844,3.027
				c0.562,0.83,1.271,1.53,2.14,2.1c0.858,0.57,1.811,1.046,2.845,1.428c1.033,0.383,2.014,0.713,2.939,0.989
				c0.859,0.261,1.73,0.558,2.609,0.892c0.879,0.333,1.729,0.72,2.553,1.159c0.82,0.439,1.594,0.932,2.311,1.478
				c0.716,0.545,1.339,1.168,1.867,1.867c0.525,0.7,0.939,1.477,1.244,2.332c0.303,0.854,0.449,1.803,0.449,2.844
				c0,1.562-0.339,2.922-1.015,4.077c-0.675,1.156-1.55,2.12-2.624,2.894c-1.074,0.772-2.295,1.351-3.662,1.732
				c-1.367,0.383-2.751,0.574-4.148,0.574c-1.562,0-3.073-0.229-4.541-0.684c-1.467-0.455-2.771-1.123-3.918-2.002
				c-1.147-0.879-2.077-1.965-2.797-3.26c-0.718-1.293-1.1-2.771-1.146-4.431h2.954c0.146,1.27,0.481,2.396,1.014,3.382
				c0.528,0.984,1.208,1.807,2.038,2.465c0.83,0.66,1.79,1.156,2.881,1.49c1.091,0.333,2.267,0.5,3.521,0.5
				c1.041,0,2.062-0.13,3.062-0.391c1.002-0.26,1.9-0.663,2.698-1.209c0.797-0.545,1.438-1.236,1.929-2.074
				C999.827,165.697,1000.071,164.692,1000.071,163.521z"/>
			<path fill="#FFFFFF" d="M1037.005,172.261h-2.759V155.22h-16.699v17.041h-2.759v-35.547h2.759v15.967h16.699v-15.967h2.759
				V172.261z"/>
			<path fill="#FFFFFF" d="M1068.006,162.349h-13.525l-3.146,9.912h-2.954l11.572-35.547h2.637l11.478,35.547h-2.933
				L1068.006,162.349z M1055.311,159.736h11.865l-5.908-18.701L1055.311,159.736z"/>
			<path fill="#FFFFFF" d="M1089.119,157.612v14.648h-2.93v-35.547h11.182c1.562,0.033,3.021,0.293,4.383,0.781
				c1.358,0.488,2.547,1.184,3.564,2.088c1.017,0.902,1.813,1.998,2.399,3.283c0.587,1.286,0.88,2.743,0.88,4.37
				c0,1.628-0.293,3.08-0.88,4.358c-0.586,1.277-1.388,2.359-2.399,3.246c-1.021,0.888-2.21,1.567-3.577,2.039
				c-1.367,0.473-2.824,0.717-4.37,0.732h-8.252V157.612z M1089.119,155.146h8.252c1.172-0.016,2.262-0.211,3.271-0.586
				c1.014-0.374,1.893-0.895,2.642-1.562c0.748-0.667,1.339-1.48,1.77-2.441c0.436-0.96,0.647-2.051,0.647-3.271
				c0-1.22-0.213-2.327-0.64-3.32c-0.424-0.992-1.01-1.835-1.758-2.526c-0.749-0.692-1.628-1.229-2.637-1.611
				c-1.01-0.383-2.108-0.59-3.296-0.623h-8.252L1089.119,155.146L1089.119,155.146z"/>
			<path fill="#FFFFFF" d="M1139.407,155.22h-15.674v14.502h18.062v2.539h-20.972v-35.547h20.874v2.563h-17.973v13.403h15.678
				L1139.407,155.22L1139.407,155.22z"/>
			<path fill="#FFFFFF" d="M1175.096,163.521c0-0.83-0.126-1.574-0.379-2.234c-0.252-0.658-0.602-1.248-1.049-1.77
				c-0.448-0.521-0.965-0.98-1.551-1.379s-1.213-0.753-1.88-1.062c-0.668-0.309-1.354-0.586-2.056-0.83
				c-0.695-0.244-1.376-0.472-2.021-0.684c-0.83-0.26-1.672-0.549-2.527-0.867c-0.854-0.316-1.684-0.684-2.49-1.098
				c-0.805-0.416-1.562-0.888-2.27-1.416c-0.709-0.529-1.327-1.127-1.855-1.795c-0.524-0.667-0.939-1.412-1.244-2.234
				c-0.303-0.821-0.448-1.736-0.448-2.746c0-1.48,0.329-2.791,0.983-3.931c0.66-1.139,1.521-2.1,2.576-2.881
				c1.062-0.781,2.25-1.371,3.576-1.771c1.327-0.398,2.665-0.598,4.021-0.598c1.514,0,2.951,0.248,4.316,0.744
				c1.367,0.497,2.567,1.193,3.604,2.088c1.03,0.896,1.854,1.981,2.478,3.26c0.618,1.277,0.952,2.697,1.001,4.26h-2.954
				c-0.131-1.155-0.414-2.209-0.854-3.162c-0.439-0.951-1.025-1.77-1.758-2.453c-0.733-0.683-1.595-1.217-2.576-1.6
				c-0.984-0.382-2.071-0.573-3.262-0.573c-0.99,0-1.976,0.134-2.939,0.403c-0.968,0.268-1.839,0.675-2.611,1.221
				c-0.771,0.545-1.396,1.229-1.881,2.051c-0.479,0.821-0.72,1.786-0.72,2.893c0,1.188,0.28,2.197,0.843,3.027
				c0.563,0.83,1.272,1.53,2.139,2.1c0.859,0.57,1.812,1.046,2.847,1.428c1.031,0.383,2.014,0.713,2.938,0.989
				c0.862,0.261,1.733,0.558,2.612,0.892c0.879,0.333,1.729,0.72,2.552,1.159c0.821,0.439,1.591,0.932,2.311,1.478
				c0.717,0.545,1.34,1.168,1.865,1.867c0.527,0.7,0.942,1.477,1.245,2.332c0.303,0.854,0.45,1.803,0.45,2.844
				c0,1.562-0.338,2.922-1.014,4.077c-0.677,1.156-1.552,2.12-2.624,2.894c-1.074,0.772-2.295,1.351-3.662,1.732
				c-1.367,0.383-2.751,0.574-4.148,0.574c-1.562,0-3.075-0.229-4.541-0.684c-1.467-0.455-2.771-1.123-3.921-2.002
				c-1.146-0.879-2.077-1.965-2.795-3.26c-0.717-1.293-1.099-2.771-1.146-4.431h2.952c0.146,1.27,0.481,2.396,1.016,3.382
				c0.527,0.984,1.208,1.807,2.038,2.465c0.83,0.66,1.79,1.156,2.881,1.49c1.09,0.333,2.262,0.5,3.517,0.5
				c1.041,0,2.062-0.13,3.062-0.391c1.002-0.26,1.896-0.663,2.697-1.209c0.798-0.545,1.438-1.236,1.93-2.074
				C1174.852,165.697,1175.096,164.692,1175.096,163.521z"/>
		</g>
	</g>
	<g display="inline">
		<g>
			<path fill="#FFFFFF" d="M180.169,695.873c-0.195,1.596-0.595,3.08-1.196,4.455c-0.603,1.376-1.4,2.572-2.393,3.59
				s-2.169,1.811-3.527,2.38c-1.359,0.569-2.886,0.854-4.578,0.854c-1.416,0-2.697-0.217-3.846-0.646
				c-1.146-0.432-2.164-1.021-3.051-1.771c-0.888-0.748-1.657-1.627-2.308-2.642c-0.651-1.009-1.188-2.096-1.611-3.259
				c-0.424-1.164-0.736-2.372-0.94-3.626c-0.203-1.253-0.312-2.498-0.329-3.73v-5.151c0.016-1.236,0.126-2.481,0.329-3.735
				c0.204-1.253,0.517-2.462,0.94-3.625c0.423-1.164,0.96-2.25,1.611-3.26c0.65-1.009,1.42-1.893,2.308-2.646
				c0.887-0.761,1.904-1.354,3.051-1.781c1.148-0.436,2.43-0.646,3.846-0.646c1.725,0,3.268,0.285,4.627,0.854
				c1.358,0.565,2.534,1.359,3.527,2.38c0.992,1.018,1.786,2.219,2.381,3.602c0.594,1.388,0.979,2.895,1.159,4.521h-2.905
				c-0.195-1.224-0.509-2.368-0.939-3.442c-0.432-1.074-1.006-2.014-1.722-2.818c-0.717-0.807-1.579-1.438-2.588-1.901
				c-1.01-0.463-2.189-0.695-3.54-0.695c-1.156,0-2.182,0.195-3.076,0.586c-0.896,0.394-1.681,0.912-2.355,1.562
				c-0.676,0.646-1.25,1.41-1.722,2.28c-0.473,0.869-0.854,1.795-1.147,2.771c-0.293,0.978-0.509,1.974-0.646,2.991
				c-0.139,1.017-0.208,2.006-0.208,2.966v5.2c0,0.961,0.069,1.953,0.208,2.979c0.138,1.025,0.354,2.026,0.646,3.004
				c0.292,0.979,0.675,1.899,1.147,2.771c0.472,0.871,1.046,1.637,1.722,2.295c0.675,0.66,1.46,1.185,2.355,1.575
				c0.895,0.39,1.92,0.586,3.076,0.586c1.367,0,2.56-0.229,3.576-0.671c1.018-0.448,1.881-1.07,2.588-1.868
				c0.709-0.797,1.278-1.733,1.709-2.812c0.432-1.069,0.736-2.229,0.916-3.467h2.905V695.873z"/>
			<path fill="#FFFFFF" d="M210.438,696.752h-13.525l-3.149,9.912h-2.954l11.572-35.547h2.637l11.475,35.547h-2.93L210.438,696.752z
				 M197.742,694.14h11.865l-5.908-18.696L197.742,694.14z"/>
			<path fill="#FFFFFF" d="M231.185,671.117l7.153,20.117l7.617-20.117h3.833v35.547h-2.856v-15.747l0.22-15.894l-7.886,20.942
				h-1.904l-7.324-20.604l0.244,15.552v15.747h-2.856v-35.547L231.185,671.117L231.185,671.117z"/>
			<path fill="#FFFFFF" d="M281.839,689.623h-15.674v14.502h18.066v2.539H263.26v-35.547h20.874v2.562h-17.969v13.403h15.674
				V689.623z"/>
			<path fill="#FFFFFF" d="M310.008,691.796h-8.789v14.868h-2.881v-35.547h10.034c1.562,0.033,3.035,0.285,4.419,0.757
				c1.383,0.473,2.592,1.151,3.625,2.038c1.034,0.888,1.848,1.975,2.441,3.26c0.595,1.286,0.892,2.759,0.892,4.419
				c0,1.188-0.175,2.271-0.524,3.247c-0.351,0.979-0.835,1.859-1.453,2.648c-0.619,0.79-1.355,1.481-2.209,2.088
				c-0.855,0.603-1.795,1.115-2.82,1.538l8.105,15.229v0.317h-3.052L310.008,691.796z M301.219,689.33h7.739
				c1.106-0.032,2.14-0.244,3.101-0.635c0.96-0.396,1.795-0.924,2.502-1.604c0.709-0.675,1.262-1.479,1.66-2.429
				c0.399-0.943,0.599-1.979,0.599-3.104c0-1.254-0.22-2.365-0.659-3.347c-0.439-0.977-1.037-1.803-1.795-2.478
				c-0.756-0.68-1.651-1.192-2.686-1.555c-1.033-0.354-2.145-0.554-3.332-0.586h-7.129V689.33z"/>
			<path fill="#FFFFFF" d="M350.457,696.752h-13.525l-3.149,9.912h-2.954l11.572-35.547h2.637l11.475,35.547h-2.93L350.457,696.752z
				 M337.762,694.14h11.865l-5.908-18.696L337.762,694.14z"/>
		</g>
	</g>
	<g display="inline">
		<g>
			<path fill="#FFFFFF" d="M176.588,161.709h-13.525l-3.149,9.912h-2.954l11.572-35.547h2.637l11.475,35.547h-2.93L176.588,161.709z
				 M163.893,159.097h11.865l-5.908-18.701L163.893,159.097z"/>
			<path fill="#FFFFFF" d="M215.572,171.621h-2.905l-16.309-30.005l-0.024,30.005h-2.905v-35.547h2.905l16.309,29.956l0.024-29.956
				h2.905V171.621z"/>
			<path fill="#FFFFFF" d="M229.215,136.074h20.581v2.637h-8.911v30.322h8.911v2.588h-20.581v-2.588h8.643v-30.322h-8.643V136.074z"
				/>
			<path fill="#FFFFFF" d="M267.345,136.074l7.153,20.117l7.617-20.117h3.833v35.547h-2.856v-15.747l0.22-15.894l-7.886,20.947
				h-1.904l-7.324-20.604l0.244,15.552v15.747h-2.856v-35.547L267.345,136.074L267.345,136.074z"/>
			<path fill="#FFFFFF" d="M316.607,161.709h-13.525l-3.149,9.912h-2.954l11.572-35.547h2.637l11.475,35.547h-2.93L316.607,161.709z
				 M303.912,159.097h11.865l-5.908-18.701L303.912,159.097z"/>
			<path fill="#FFFFFF" d="M357.325,138.638h-11.328v32.983h-2.856l0.024-32.983h-11.353v-2.563h25.513V138.638z"/>
			<path fill="#FFFFFF" d="M369.234,136.074h20.581v2.637h-8.911v30.322h8.911v2.588h-20.581v-2.588h8.643v-30.322h-8.643V136.074z"
				/>
			<path fill="#FFFFFF" d="M426.456,156.216c-0.017,1.205-0.122,2.438-0.317,3.698c-0.19,1.262-0.5,2.482-0.916,3.662
				c-0.414,1.181-0.938,2.287-1.569,3.32c-0.64,1.034-1.393,1.938-2.263,2.711c-0.871,0.772-1.875,1.383-3.016,1.83
				c-1.14,0.448-2.417,0.672-3.833,0.672c-1.4,0-2.67-0.224-3.809-0.672c-1.14-0.447-2.152-1.058-3.04-1.83
				c-0.887-0.773-1.651-1.681-2.295-2.723c-0.643-1.041-1.172-2.152-1.586-3.332c-0.416-1.181-0.725-2.396-0.928-3.65
				c-0.204-1.253-0.314-2.481-0.33-3.687v-4.688c0.016-1.204,0.126-2.438,0.33-3.698c0.203-1.262,0.508-2.482,0.915-3.662
				c0.406-1.181,0.932-2.291,1.575-3.333c0.643-1.041,1.403-1.953,2.282-2.734c0.879-0.781,1.884-1.396,3.015-1.843
				c1.132-0.448,2.405-0.672,3.821-0.672s2.693,0.224,3.833,0.672c1.139,0.447,2.152,1.058,3.039,1.83
				c0.888,0.773,1.646,1.682,2.283,2.723c0.635,1.042,1.155,2.152,1.569,3.332c0.416,1.181,0.726,2.401,0.916,3.662
				c0.195,1.262,0.306,2.503,0.317,3.724v4.688H426.456L426.456,156.216z M423.575,151.479c-0.021-0.943-0.09-1.929-0.22-2.954
				c-0.136-1.025-0.347-2.026-0.64-3.003s-0.672-1.908-1.135-2.796c-0.465-0.887-1.03-1.663-1.697-2.331
				c-0.668-0.667-1.449-1.196-2.344-1.587c-0.896-0.391-1.913-0.586-3.052-0.586c-1.14,0-2.152,0.199-3.04,0.598
				c-0.887,0.399-1.664,0.933-2.331,1.6c-0.668,0.668-1.233,1.444-1.696,2.332c-0.465,0.887-0.843,1.818-1.136,2.795
				s-0.505,1.978-0.635,3.003c-0.131,1.025-0.204,2.002-0.22,2.93v4.736c0.016,0.944,0.094,1.925,0.232,2.942
				c0.138,1.017,0.354,2.018,0.646,3.002c0.293,0.985,0.672,1.921,1.135,2.809c0.465,0.887,1.029,1.664,1.697,2.331
				c0.667,0.668,1.448,1.2,2.344,1.599c0.895,0.399,1.912,0.599,3.052,0.599c1.155,0,2.177-0.199,3.063-0.599
				c0.888-0.398,1.664-0.931,2.332-1.599c0.667-0.667,1.232-1.444,1.697-2.331c0.463-0.888,0.838-1.823,1.123-2.809
				c0.284-0.984,0.488-1.985,0.609-3.002c0.122-1.018,0.188-1.998,0.208-2.942v-4.737H423.575z"/>
			<path fill="#FFFFFF" d="M460.605,171.621h-2.904l-16.312-30.005l-0.021,30.005h-2.905v-35.547h2.905l16.309,29.956l0.024-29.956
				h2.904V171.621z"/>
		</g>
	</g>
</g>
</svg>
