<?xml version="1.0" encoding="utf-8"?>
<!-- Generator: Adobe Illustrator 16.0.0, SVG Export Plug-In . SVG Version: 6.00 Build 0)  -->
<!DOCTYPE svg PUBLIC "-//W3C//DTD SVG 1.1//EN" "http://www.w3.org/Graphics/SVG/1.1/DTD/svg11.dtd">
<svg version="1.1" xmlns="http://www.w3.org/2000/svg" xmlns:xlink="http://www.w3.org/1999/xlink" x="0px" y="0px" width="1920px"
	 height="1080px" viewBox="0 0 1920 1080" enable-background="new 0 0 1920 1080" xml:space="preserve">
<g id="Layer_2" display="none">
	<rect display="inline" fill="#231F20" width="1920" height="1080"/>
</g>
<g id="Layer_1">
	<g>
		<path fill="none" stroke="#FFFFFF" stroke-width="1.3303" stroke-miterlimit="10" d="M1862.291,81.322
			c0.127-0.974,0.215-1.959,0.215-2.967s-0.088-1.993-0.215-2.967l6.426-5.031c0.572-0.461,0.74-1.283,0.36-1.941l-6.083-10.535
			c-0.379-0.658-1.175-0.924-1.861-0.661l-7.572,3.052c-1.568-1.204-3.286-2.223-5.139-2.991l-1.141-8.058
			c-0.115-0.726-0.743-1.282-1.502-1.282h-12.166c-0.759,0-1.387,0.556-1.502,1.282l-1.14,8.057
			c-1.854,0.769-3.573,1.786-5.143,2.991l-7.569-3.05c-0.686-0.263-1.482,0.003-1.861,0.661l-6.082,10.535
			c-0.381,0.658-0.214,1.479,0.359,1.941l6.424,5.03c-0.128,0.974-0.215,1.96-0.215,2.969s0.087,1.995,0.215,2.969l-6.424,5.028
			c-0.573,0.463-0.74,1.285-0.359,1.942l6.082,10.535c0.379,0.658,1.176,0.924,1.861,0.661l7.57-3.052
			c1.57,1.205,3.289,2.224,5.142,2.991l1.14,8.058c0.115,0.727,0.743,1.282,1.502,1.282h12.166c0.759,0,1.387-0.555,1.502-1.282
			l1.141-8.058c1.852-0.77,3.569-1.787,5.138-2.993l7.573,3.053c0.687,0.263,1.482-0.003,1.861-0.661l6.083-10.535
			c0.38-0.658,0.212-1.479-0.36-1.942L1862.291,81.322z"/>
	</g>
	<g>
		<path fill="none" stroke="#FFFFFF" stroke-width="1.3303" stroke-miterlimit="10" d="M1839.697,89
			c-5.88,0-10.646-4.766-10.646-10.645c0-5.879,4.767-10.645,10.646-10.645c5.879,0,10.645,4.766,10.645,10.645
			C1850.342,84.234,1845.576,89,1839.697,89z"/>
	</g>
</g>
</svg>
