<?xml version="1.0" encoding="utf-8"?>
<!-- Generator: Adobe Illustrator 16.0.0, SVG Export Plug-In . SVG Version: 6.00 Build 0)  -->
<!DOCTYPE svg PUBLIC "-//W3C//DTD SVG 1.1//EN" "http://www.w3.org/Graphics/SVG/1.1/DTD/svg11.dtd">
<svg version="1.1" xmlns="http://www.w3.org/2000/svg" xmlns:xlink="http://www.w3.org/1999/xlink" x="0px" y="0px" width="1920px"
	 height="1080px" viewBox="0 0 1920 1080" enable-background="new 0 0 1920 1080" xml:space="preserve">
<g id="Layer_3" display="none">
	<rect x="-3" display="inline" fill="#231F20" width="1926.001" height="1080"/>
</g>
<g id="Layer_1" display="none">
	
		<rect x="163.226" y="827.976" display="inline" fill="none" stroke="#FFFFFF" stroke-miterlimit="10" width="762.378" height="144.014"/>
	
		<rect x="994.396" y="827.976" display="inline" fill="none" stroke="#FFFFFF" stroke-miterlimit="10" width="762.378" height="144.014"/>
	<g display="inline">
		<path fill="none" stroke="#FFFFFF" stroke-width="0.9706" stroke-miterlimit="10" d="M1219.844,900.334
			c0.092-0.711,0.156-1.429,0.156-2.165c0-0.735-0.064-1.454-0.156-2.165l4.688-3.671c0.417-0.336,0.54-0.936,0.262-1.416
			l-4.438-7.686c-0.276-0.48-0.857-0.674-1.358-0.482l-5.525,2.227c-1.144-0.879-2.397-1.623-3.75-2.183l-0.832-5.879
			c-0.083-0.53-0.542-0.935-1.096-0.935h-8.876c-0.554,0-1.012,0.405-1.095,0.935l-0.833,5.878
			c-1.353,0.561-2.607,1.304-3.752,2.182l-5.522-2.225c-0.5-0.192-1.081,0.002-1.358,0.482l-4.438,7.686
			c-0.277,0.48-0.156,1.08,0.262,1.416l4.687,3.67c-0.093,0.711-0.157,1.431-0.157,2.166c0,0.736,0.064,1.455,0.157,2.166
			l-4.687,3.668c-0.418,0.338-0.54,0.938-0.262,1.417l4.438,7.686c0.277,0.48,0.857,0.674,1.358,0.482l5.524-2.227
			c1.145,0.879,2.398,1.623,3.75,2.183l0.833,5.879c0.083,0.53,0.542,0.935,1.095,0.935h8.876c0.554,0,1.012-0.405,1.096-0.935
			l0.832-5.879c1.351-0.562,2.605-1.304,3.749-2.184l5.526,2.228c0.5,0.192,1.082-0.002,1.358-0.482l4.438-7.686
			c0.278-0.48,0.155-1.08-0.262-1.417L1219.844,900.334z"/>
	</g>
	<g display="inline">
		<path fill="none" stroke="#FFFFFF" stroke-width="0.9706" stroke-miterlimit="10" d="M1203.359,905.936
			c-4.289,0-7.767-3.478-7.767-7.767s3.478-7.767,7.767-7.767c4.29,0,7.767,3.478,7.767,7.767S1207.648,905.936,1203.359,905.936z"
			/>
	</g>
</g>
<g id="Layer_1_copy">
	<g>
		<g>
			<path fill="#FFFFFF" d="M392.792,909.126c0.018-1.607-0.328-2.976-1.038-4.107c-0.71-1.13-1.617-2.088-2.719-2.874
				c-1.104-0.785-2.332-1.444-3.687-1.977c-1.355-0.533-2.677-0.995-3.967-1.388c-0.935-0.28-1.888-0.598-2.859-0.953
				c-0.972-0.355-1.916-0.757-2.832-1.206c-0.916-0.449-1.776-0.958-2.579-1.528c-0.804-0.57-1.505-1.224-2.103-1.962
				c-0.599-0.738-1.07-1.57-1.416-2.495c-0.346-0.925-0.509-1.967-0.491-3.126c0-1.645,0.369-3.093,1.107-4.346
				c0.738-1.252,1.696-2.294,2.874-3.126c1.177-0.832,2.5-1.458,3.967-1.878c1.467-0.421,2.948-0.631,4.444-0.631
				c1.701,0,3.294,0.276,4.78,0.827s2.78,1.322,3.883,2.313c1.103,0.991,1.986,2.196,2.649,3.617s1.033,3,1.107,4.738h-1.486
				c-0.15-1.476-0.519-2.827-1.107-4.051c-0.589-1.224-1.36-2.275-2.313-3.154s-2.065-1.561-3.336-2.047
				c-1.271-0.486-2.663-0.729-4.177-0.729c-1.271,0-2.551,0.168-3.841,0.505s-2.458,0.851-3.505,1.542
				c-1.047,0.692-1.897,1.565-2.551,2.622s-0.991,2.304-1.009,3.743c-0.019,1.028,0.136,1.953,0.463,2.775
				c0.327,0.823,0.771,1.556,1.332,2.201c0.561,0.645,1.21,1.219,1.949,1.724c0.738,0.504,1.528,0.949,2.369,1.332
				c0.841,0.383,1.696,0.725,2.565,1.023c0.869,0.299,1.715,0.57,2.538,0.813c1.458,0.43,2.93,0.953,4.416,1.57
				c1.486,0.617,2.832,1.379,4.037,2.285c1.206,0.907,2.187,2.004,2.944,3.294c0.757,1.29,1.136,2.822,1.136,4.598
				c0,1.757-0.365,3.285-1.094,4.584c-0.729,1.299-1.687,2.379-2.874,3.238c-1.187,0.86-2.537,1.505-4.051,1.935
				s-3.065,0.645-4.654,0.645c-1.776,0-3.477-0.248-5.103-0.743c-1.626-0.495-3.065-1.229-4.317-2.201
				c-1.252-0.971-2.271-2.172-3.056-3.603c-0.785-1.43-1.215-3.088-1.29-4.976h1.486c0.168,1.664,0.603,3.117,1.304,4.359
				c0.701,1.243,1.598,2.285,2.691,3.126c1.094,0.841,2.346,1.472,3.757,1.893c1.411,0.42,2.92,0.631,4.528,0.631
				c1.364,0,2.714-0.173,4.051-0.519s2.528-0.874,3.575-1.584c1.047-0.71,1.893-1.621,2.538-2.733
				C392.47,912.01,392.792,910.678,392.792,909.126z"/>
			<path fill="#FFFFFF" d="M435.206,879.604h-13.43v39.307h-1.514l0.056-39.307h-13.458v-1.514h28.345V879.604z"/>
			<path fill="#FFFFFF" d="M470.245,906.715h-17.354l-3.981,12.196h-1.57l13.373-40.821h1.738l13.374,40.821h-1.57L470.245,906.715z
				 M453.367,905.202h16.401l-8.187-25.037L453.367,905.202z"/>
			<path fill="#FFFFFF" d="M503.939,901.444h-12v17.467h-1.458V878.09h11.074c1.682,0.038,3.271,0.341,4.766,0.911
				c1.495,0.57,2.799,1.37,3.911,2.397c1.112,1.028,1.991,2.257,2.635,3.687c0.645,1.43,0.967,3.023,0.967,4.78
				c0,1.42-0.21,2.706-0.631,3.855c-0.42,1.149-1.005,2.182-1.752,3.098c-0.748,0.916-1.64,1.72-2.678,2.411
				c-1.037,0.692-2.173,1.281-3.406,1.767l10.009,17.522v0.393h-1.542L503.939,901.444z M491.939,899.931h10.85
				c1.383-0.037,2.659-0.327,3.827-0.869c1.168-0.542,2.173-1.266,3.014-2.173c0.841-0.906,1.5-1.962,1.977-3.168
				c0.477-1.206,0.715-2.491,0.715-3.855c0-1.551-0.285-2.953-0.855-4.206c-0.57-1.252-1.341-2.322-2.313-3.21
				s-2.117-1.575-3.434-2.061c-1.318-0.486-2.715-0.747-4.191-0.785h-9.588V899.931z"/>
			<path fill="#FFFFFF" d="M555.801,879.604h-13.43v39.307h-1.514l0.056-39.307h-13.458v-1.514h28.345V879.604z"/>
			<path fill="#FFFFFF" d="M634.178,918.911h-1.401l-21.644-38.241l0.056,38.241h-1.43V878.09h1.402l21.616,38.157l-0.056-38.157
				h1.458V918.911z"/>
			<path fill="#FFFFFF" d="M675.358,901.557c-0.019,1.328-0.14,2.691-0.364,4.093c-0.225,1.402-0.561,2.767-1.009,4.093
				c-0.449,1.328-1.023,2.58-1.725,3.757c-0.701,1.178-1.538,2.21-2.509,3.098c-0.972,0.888-2.088,1.589-3.35,2.103
				c-1.262,0.514-2.668,0.771-4.219,0.771c-1.552,0-2.958-0.257-4.22-0.771c-1.262-0.514-2.383-1.214-3.364-2.103
				c-0.981-0.888-1.827-1.92-2.537-3.098c-0.711-1.177-1.294-2.429-1.752-3.757c-0.458-1.327-0.804-2.691-1.037-4.093
				c-0.234-1.402-0.36-2.766-0.379-4.093v-6.112c0.019-1.327,0.14-2.691,0.365-4.093c0.224-1.402,0.565-2.766,1.023-4.093
				c0.458-1.327,1.037-2.58,1.738-3.757c0.701-1.178,1.542-2.21,2.523-3.098c0.981-0.887,2.098-1.588,3.351-2.103
				c1.252-0.514,2.663-0.771,4.233-0.771c1.57,0,2.981,0.257,4.233,0.771c1.252,0.514,2.369,1.215,3.35,2.103
				c0.981,0.888,1.823,1.92,2.523,3.098c0.701,1.177,1.28,2.43,1.738,3.757c0.458,1.327,0.799,2.691,1.023,4.093
				c0.224,1.402,0.346,2.767,0.364,4.093V901.557z M673.872,895.389c-0.019-1.196-0.122-2.429-0.309-3.701
				c-0.187-1.271-0.477-2.509-0.869-3.715c-0.392-1.206-0.897-2.35-1.514-3.435c-0.617-1.083-1.36-2.032-2.229-2.846
				c-0.869-0.813-1.869-1.458-3-1.934c-1.131-0.477-2.407-0.715-3.827-0.715c-1.421,0-2.691,0.238-3.813,0.715
				c-1.122,0.477-2.117,1.121-2.986,1.934c-0.869,0.813-1.608,1.762-2.215,2.846c-0.608,1.084-1.107,2.234-1.5,3.449
				s-0.683,2.458-0.869,3.729c-0.187,1.271-0.29,2.496-0.309,3.673v6.168c0.019,1.196,0.122,2.43,0.309,3.701
				c0.187,1.271,0.477,2.514,0.869,3.729c0.393,1.215,0.897,2.365,1.514,3.448c0.617,1.084,1.359,2.038,2.229,2.86
				c0.869,0.823,1.869,1.472,3,1.949s2.406,0.715,3.827,0.715c1.42,0,2.696-0.238,3.827-0.715s2.126-1.126,2.986-1.949
				c0.859-0.822,1.598-1.775,2.215-2.86c0.617-1.083,1.122-2.233,1.514-3.448c0.393-1.215,0.677-2.458,0.855-3.729
				c0.177-1.271,0.275-2.504,0.294-3.701V895.389z"/>
			<path fill="#FFFFFF" d="M694.333,909.659l0.785,5.159l0.841-5.159l6.308-31.485v-0.084h1.402l-0.028,0.084l6.28,31.485
				l0.813,5.215l0.841-5.215l5.074-31.569h1.374l-6.533,40.821h-1.401v-0.084l-6.589-33.952l-0.561-2.972l-0.533,2.972
				l-6.673,33.952l0.028,0.084h-1.402l-6.532-40.821h1.401L694.333,909.659z"/>
		</g>
	</g>
	<g>
		<g>
			<path fill="#FFFFFF" d="M1277.079,909.126c0.019-1.607-0.327-2.976-1.037-4.107c-0.711-1.13-1.617-2.088-2.72-2.874
				s-2.332-1.444-3.687-1.977c-1.355-0.533-2.678-0.995-3.967-1.388c-0.936-0.28-1.889-0.598-2.86-0.953s-1.916-0.757-2.831-1.206
				c-0.916-0.449-1.776-0.958-2.579-1.528c-0.805-0.57-1.505-1.224-2.104-1.962c-0.598-0.738-1.07-1.57-1.415-2.495
				c-0.347-0.925-0.51-1.967-0.491-3.126c0-1.645,0.369-3.093,1.107-4.346c0.738-1.252,1.696-2.294,2.874-3.126
				s2.499-1.458,3.967-1.878c1.467-0.421,2.948-0.631,4.444-0.631c1.7,0,3.294,0.276,4.779,0.827
				c1.486,0.551,2.78,1.322,3.884,2.313c1.103,0.991,1.985,2.196,2.649,3.617c0.663,1.42,1.032,3,1.107,4.738h-1.486
				c-0.149-1.476-0.519-2.827-1.107-4.051c-0.589-1.224-1.359-2.275-2.312-3.154c-0.954-0.878-2.065-1.561-3.337-2.047
				c-1.271-0.486-2.663-0.729-4.177-0.729c-1.271,0-2.552,0.168-3.842,0.505c-1.289,0.336-2.458,0.851-3.504,1.542
				c-1.047,0.692-1.897,1.565-2.552,2.622s-0.99,2.304-1.009,3.743c-0.02,1.028,0.135,1.953,0.462,2.775
				c0.327,0.823,0.771,1.556,1.332,2.201c0.561,0.645,1.21,1.219,1.948,1.724c0.738,0.504,1.528,0.949,2.369,1.332
				c0.842,0.383,1.696,0.725,2.565,1.023c0.869,0.299,1.715,0.57,2.537,0.813c1.458,0.43,2.93,0.953,4.416,1.57
				c1.486,0.617,2.832,1.379,4.037,2.285c1.206,0.907,2.187,2.004,2.944,3.294c0.757,1.29,1.135,2.822,1.135,4.598
				c0,1.757-0.364,3.285-1.093,4.584c-0.729,1.299-1.688,2.379-2.874,3.238c-1.188,0.86-2.537,1.505-4.052,1.935
				c-1.514,0.43-3.065,0.645-4.653,0.645c-1.776,0-3.477-0.248-5.103-0.743s-3.065-1.229-4.317-2.201
				c-1.253-0.971-2.271-2.172-3.057-3.603c-0.785-1.43-1.215-3.088-1.289-4.976h1.485c0.168,1.664,0.603,3.117,1.304,4.359
				c0.701,1.243,1.599,2.285,2.691,3.126c1.094,0.841,2.346,1.472,3.757,1.893s2.92,0.631,4.528,0.631
				c1.364,0,2.715-0.173,4.051-0.519s2.528-0.874,3.575-1.584c1.046-0.71,1.893-1.621,2.537-2.733
				C1276.756,912.01,1277.079,910.678,1277.079,909.126z"/>
			<path fill="#FFFFFF" d="M1314.642,898.669h-18.98v18.728h21.644v1.514h-23.13V878.09h23.13v1.514h-21.644v17.551h18.98V898.669z"
				/>
			<path fill="#FFFFFF" d="M1359.69,879.604h-13.429v39.307h-1.515l0.057-39.307h-13.458v-1.514h28.345V879.604z"/>
			<path fill="#FFFFFF" d="M1399.888,879.604h-13.429v39.307h-1.515l0.057-39.307h-13.458v-1.514h28.345V879.604z"/>
			<path fill="#FFFFFF" d="M1414.545,878.09h22.598v1.57h-10.682v37.736h10.682v1.514h-22.598v-1.514h10.29v-37.736h-10.29V878.09z"
				/>
			<path fill="#FFFFFF" d="M1478.266,918.911h-1.401l-21.645-38.241l0.057,38.241h-1.43V878.09h1.401l21.616,38.157l-0.057-38.157
				h1.458V918.911z"/>
			<path fill="#FFFFFF" d="M1519.25,914.538c-0.748,0.916-1.603,1.687-2.565,2.313c-0.963,0.626-1.986,1.135-3.069,1.528
				c-1.085,0.393-2.206,0.673-3.365,0.841c-1.158,0.168-2.309,0.252-3.448,0.252c-1.589-0.019-3.032-0.28-4.331-0.785
				c-1.3-0.505-2.463-1.187-3.491-2.047c-1.027-0.859-1.925-1.869-2.691-3.028c-0.767-1.159-1.406-2.401-1.92-3.729
				c-0.515-1.327-0.902-2.701-1.164-4.121s-0.401-2.832-0.42-4.233v-6.673c0.019-1.346,0.154-2.706,0.406-4.079
				c0.252-1.374,0.626-2.701,1.121-3.981s1.117-2.481,1.865-3.603c0.747-1.121,1.621-2.103,2.621-2.944
				c0.999-0.841,2.131-1.504,3.393-1.99c1.262-0.486,2.658-0.729,4.191-0.729c1.738,0,3.34,0.29,4.808,0.869
				c1.468,0.58,2.757,1.388,3.869,2.425c1.112,1.038,2.023,2.262,2.733,3.673c0.71,1.412,1.178,2.958,1.402,4.64h-1.486
				c-0.318-1.458-0.795-2.804-1.43-4.037c-0.636-1.234-1.426-2.299-2.369-3.196c-0.944-0.897-2.042-1.598-3.294-2.103
				c-1.253-0.505-2.664-0.757-4.233-0.757c-1.384,0-2.641,0.225-3.771,0.673c-1.131,0.449-2.141,1.056-3.027,1.823
				c-0.889,0.767-1.659,1.664-2.313,2.691s-1.196,2.126-1.626,3.294c-0.43,1.168-0.757,2.374-0.981,3.617
				c-0.224,1.243-0.346,2.463-0.364,3.659v6.729c0.019,1.252,0.141,2.528,0.364,3.827c0.225,1.299,0.561,2.551,1.01,3.757
				c0.448,1.206,1.009,2.346,1.682,3.42c0.673,1.075,1.473,2.01,2.397,2.804c0.925,0.795,1.972,1.426,3.14,1.893
				c1.168,0.467,2.472,0.71,3.911,0.729c0.972,0.019,1.972-0.037,3-0.168c1.028-0.13,2.028-0.354,3-0.673
				c0.972-0.317,1.883-0.743,2.733-1.275s1.594-1.201,2.229-2.005v-11.887h-11.047v-1.542h12.504L1519.25,914.538z"/>
			<path fill="#FFFFFF" d="M1558.467,909.126c0.019-1.607-0.327-2.976-1.037-4.107c-0.711-1.13-1.617-2.088-2.72-2.874
				s-2.332-1.444-3.687-1.977c-1.355-0.533-2.678-0.995-3.967-1.388c-0.936-0.28-1.889-0.598-2.86-0.953s-1.916-0.757-2.831-1.206
				c-0.916-0.449-1.776-0.958-2.579-1.528c-0.805-0.57-1.505-1.224-2.104-1.962c-0.598-0.738-1.07-1.57-1.415-2.495
				c-0.347-0.925-0.51-1.967-0.491-3.126c0-1.645,0.369-3.093,1.107-4.346c0.738-1.252,1.696-2.294,2.874-3.126
				s2.499-1.458,3.967-1.878c1.467-0.421,2.948-0.631,4.444-0.631c1.7,0,3.294,0.276,4.779,0.827
				c1.486,0.551,2.78,1.322,3.884,2.313c1.103,0.991,1.985,2.196,2.649,3.617c0.663,1.42,1.032,3,1.107,4.738h-1.486
				c-0.149-1.476-0.519-2.827-1.107-4.051c-0.589-1.224-1.359-2.275-2.312-3.154c-0.954-0.878-2.065-1.561-3.337-2.047
				c-1.271-0.486-2.663-0.729-4.177-0.729c-1.271,0-2.552,0.168-3.842,0.505c-1.289,0.336-2.458,0.851-3.504,1.542
				c-1.047,0.692-1.897,1.565-2.552,2.622s-0.99,2.304-1.009,3.743c-0.02,1.028,0.135,1.953,0.462,2.775
				c0.327,0.823,0.771,1.556,1.332,2.201c0.561,0.645,1.21,1.219,1.948,1.724c0.738,0.504,1.528,0.949,2.369,1.332
				c0.842,0.383,1.696,0.725,2.565,1.023c0.869,0.299,1.715,0.57,2.537,0.813c1.458,0.43,2.93,0.953,4.416,1.57
				c1.486,0.617,2.832,1.379,4.037,2.285c1.206,0.907,2.187,2.004,2.944,3.294c0.757,1.29,1.135,2.822,1.135,4.598
				c0,1.757-0.364,3.285-1.093,4.584c-0.729,1.299-1.688,2.379-2.874,3.238c-1.188,0.86-2.537,1.505-4.052,1.935
				c-1.514,0.43-3.065,0.645-4.653,0.645c-1.776,0-3.477-0.248-5.103-0.743s-3.065-1.229-4.317-2.201
				c-1.253-0.971-2.271-2.172-3.057-3.603c-0.785-1.43-1.215-3.088-1.289-4.976h1.485c0.168,1.664,0.603,3.117,1.304,4.359
				c0.701,1.243,1.599,2.285,2.691,3.126c1.094,0.841,2.346,1.472,3.757,1.893s2.92,0.631,4.528,0.631
				c1.364,0,2.715-0.173,4.051-0.519s2.528-0.874,3.575-1.584c1.046-0.71,1.893-1.621,2.537-2.733
				C1558.145,912.01,1558.467,910.678,1558.467,909.126z"/>
		</g>
	</g>
</g>
</svg>
