<?xml version="1.0" encoding="utf-8"?>
<!-- Generator: Adobe Illustrator 16.0.0, SVG Export Plug-In . SVG Version: 6.00 Build 0)  -->
<!DOCTYPE svg PUBLIC "-//W3C//DTD SVG 1.1//EN" "http://www.w3.org/Graphics/SVG/1.1/DTD/svg11.dtd">
<svg version="1.1" id="Layer_1" xmlns="http://www.w3.org/2000/svg" xmlns:xlink="http://www.w3.org/1999/xlink" x="0px" y="0px"
	 width="1920px" height="1080px" viewBox="0 0 1920 1080" enable-background="new 0 0 1920 1080" xml:space="preserve">
<g id="Layer_2" display="none">
	<path display="inline" fill="#231F20" d="M-7.468-2.394v1080h1920v-1080H-7.468L-7.468-2.394z"/>
	<line display="inline" fill="none" x1="899.498" y1="650.439" x2="899.498" y2="680.642"/>
</g>
<path fill="#FFFFFF" d="M766.261,611.161c0,0.549-0.398,0.951-0.95,0.951c-0.55,0-0.948-0.402-0.948-0.951v-2.67
	c-1.466,2.268-3.88,3.768-7.136,3.768c-5.889,0-9.144-4.755-9.144-10.204c0-5.446,3.255-10.352,9.144-10.352
	c3.256,0,5.67,1.536,7.136,3.841v-2.597c0-0.622,0.476-0.951,0.948-0.951c0.438,0,0.95,0.329,0.95,0.951V611.161z M764.359,601.688
	c0-4.604-2.779-8.079-7.133-8.079c-4.429,0-7.241,3.653-7.241,8.445c0,4.791,2.812,8.339,7.241,8.339
	c4.354,0,7.133-3.512,7.133-8.083V601.688z"/>
<path fill="#FFFFFF" d="M774.164,592.947c0-0.622,0.476-0.951,0.951-0.951c0.475,0,0.949,0.329,0.949,0.951v2.229
	c1.314-2.229,3.729-3.475,6.398-3.475c4.828,0,8.119,2.89,8.119,8.34v11.118c0,0.622-0.512,0.951-0.95,0.951
	c-0.476,0-0.951-0.329-0.951-0.951v-11.118c0-3.987-2.341-6.438-6.218-6.438c-3.475,0-6.398,2.89-6.398,7.567v9.984
	c0,0.549-0.401,0.951-0.949,0.951c-0.514,0-0.951-0.402-0.951-0.951V592.947z"/>
<path fill="#FFFFFF" d="M826.579,611.161c0,0.549-0.402,0.951-0.951,0.951c-0.548,0-0.95-0.402-0.95-0.951v-2.67
	c-1.463,2.268-3.877,3.768-7.133,3.768c-5.889,0-9.144-4.755-9.144-10.204c0-5.446,3.255-10.352,9.144-10.352
	c3.256,0,5.67,1.536,7.133,3.841v-2.597c0-0.622,0.479-0.951,0.95-0.951c0.439,0,0.951,0.329,0.951,0.951V611.161z M824.677,601.688
	c0-4.604-2.78-8.079-7.133-8.079c-4.426,0-7.241,3.653-7.241,8.445c0,4.791,2.815,8.339,7.241,8.339
	c4.353,0,7.133-3.512,7.133-8.083V601.688z"/>
<path fill="#FFFFFF" d="M834.48,592.947c0-0.622,0.477-0.951,0.948-0.951c0.479,0,0.951,0.329,0.951,0.951v2.229
	c1.316-2.229,3.729-3.475,6.4-3.475c4.827,0,8.12,2.89,8.12,8.34v11.118c0,0.622-0.517,0.951-0.951,0.951
	c-0.479,0-0.951-0.329-0.951-0.951v-11.118c0-3.987-2.341-6.438-6.218-6.438c-3.478,0-6.4,2.89-6.4,7.567v9.984
	c0,0.549-0.399,0.951-0.951,0.951c-0.512,0-0.948-0.402-0.948-0.951V592.947z"/>
<path fill="#FFFFFF" d="M883.459,592.947c0-0.622,0.477-0.951,0.951-0.951c0.474,0,0.951,0.329,0.951,0.951v2.229
	c1.463-2.377,3.397-3.475,5.633-3.475c0.658,0,1.572,0.184,1.572,1.098c0,0.585-0.293,1.102-0.951,1.102
	c-0.256,0-0.585-0.11-0.987-0.11c-2.341,0-5.267,2.523-5.267,7.021v10.352c0,0.549-0.402,0.951-0.951,0.951
	c-0.512,0-0.951-0.402-0.951-0.951V592.947z"/>
<path fill="#FFFFFF" d="M920.587,586.839c0-0.841,0.695-1.536,1.536-1.536c0.842,0,1.573,0.695,1.573,1.536
	s-0.731,1.536-1.573,1.536C921.283,588.375,920.587,587.68,920.587,586.839z"/>
<path fill="#FFFFFF" d="M921.172,592.947c0-0.622,0.477-0.951,0.951-0.951c0.474,0,0.951,0.329,0.951,0.951v18.214
	c0,0.549-0.402,0.951-0.951,0.951c-0.512,0-0.951-0.402-0.951-0.951V592.947z"/>
<path fill="#FFFFFF" d="M967.811,602.896c0.365,4.312,3.185,7.494,7.392,7.494c2.121,0,4.462-0.654,6.181-2.305
	c0.329-0.292,0.516-0.4,0.842-0.4c0.586,0,0.914,0.4,0.914,0.879c0,0.257-0.07,0.55-0.256,0.77
	c-1.792,1.975-4.755,2.926-7.681,2.926c-5.929,0-9.327-4.86-9.327-10.312c0-5.486,3.219-10.241,9.144-10.241
	c5.893,0,8.998,4.646,8.998,10.095c0,0.695-0.327,1.102-0.948,1.102h-15.254L967.811,602.896L967.811,602.896z M967.811,600.993
	h14.338c-0.326-4.279-2.928-7.388-7.134-7.388C970.882,593.605,968.139,596.714,967.811,600.993z"/>
<path fill="#FFFFFF" d="M995.244,601.871l-6.511-8.229c-0.187-0.219-0.292-0.548-0.292-0.768c0-0.513,0.476-0.878,0.946-0.878
	c0.402,0,0.659,0.183,0.951,0.549l6.146,7.754l6.145-7.754c0.293-0.366,0.55-0.549,0.951-0.549c0.478,0,0.951,0.365,0.951,0.878
	c0,0.22-0.109,0.549-0.293,0.768l-6.513,8.229l6.806,8.596c0.183,0.219,0.293,0.549,0.293,0.771c0,0.549-0.478,0.878-0.951,0.878
	c-0.4,0-0.658-0.146-0.951-0.55l-6.438-8.118l-6.438,8.118c-0.293,0.399-0.549,0.55-0.947,0.55c-0.479,0-0.951-0.329-0.951-0.878
	c0-0.223,0.105-0.553,0.293-0.771L995.244,601.871z"/>
<path fill="#FFFFFF" d="M1035.7,602.896c0.366,4.312,3.182,7.494,7.389,7.494c2.121,0,4.462-0.654,6.181-2.305
	c0.329-0.292,0.516-0.4,0.846-0.4c0.585,0,0.914,0.4,0.914,0.879c0,0.257-0.073,0.55-0.26,0.77
	c-1.791,1.975-4.755,2.926-7.681,2.926c-5.926,0-9.327-4.86-9.327-10.312c0-5.486,3.219-10.241,9.146-10.241
	c5.889,0,8.998,4.646,8.998,10.095c0,0.695-0.329,1.102-0.951,1.102H1035.7V602.896z M1035.7,600.993h14.338
	c-0.329-4.279-2.927-7.388-7.133-7.388C1038.771,593.605,1036.029,596.714,1035.7,600.993z"/>
<path fill="#FFFFFF" d="M1058.525,592.947c0-0.622,0.476-0.951,0.951-0.951c0.475,0,0.946,0.329,0.946,0.951v2.229
	c1.464-2.377,3.402-3.475,5.636-3.475c0.655,0,1.57,0.184,1.57,1.098c0,0.585-0.293,1.102-0.951,1.102
	c-0.256,0-0.585-0.11-0.983-0.11c-2.341,0-5.271,2.523-5.271,7.021v10.352c0,0.549-0.398,0.951-0.946,0.951
	c-0.517,0-0.951-0.402-0.951-0.951V592.947z"/>
<path fill="#FFFFFF" d="M1073.083,586.839c0-0.841,0.694-1.536,1.536-1.536c0.841,0,1.572,0.695,1.572,1.536
	s-0.731,1.536-1.572,1.536S1073.083,587.68,1073.083,586.839z"/>
<path fill="#FFFFFF" d="M1073.668,592.947c0-0.622,0.476-0.951,0.951-0.951c0.475,0,0.95,0.329,0.95,0.951v18.214
	c0,0.549-0.402,0.951-0.95,0.951c-0.513,0-0.951-0.402-0.951-0.951V592.947z"/>
<path fill="#FFFFFF" d="M1106.111,599.677c0-3.982-1.536-6.067-4.608-6.067c-3.182,0-4.791,2.229-4.791,6.945v10.606
	c0,0.622-0.512,0.951-0.951,0.951c-0.476,0-0.951-0.329-0.951-0.951v-11.484c0-3.982-1.536-6.067-4.604-6.067
	c-3.108,0-4.791,2.119-4.791,6.617v10.938c0,0.549-0.402,0.951-0.951,0.951c-0.516,0-0.951-0.402-0.951-0.951V592.95
	c0-0.622,0.476-0.951,0.951-0.951c0.475,0,0.951,0.329,0.951,0.951v0.985c1.021-1.278,2.412-2.229,4.791-2.229
	c2.597,0,4.568,0.951,5.633,3.256c1.098-1.829,2.963-3.256,5.669-3.256c3.914,0,6.475,2.229,6.475,7.974v11.484
	c0,0.622-0.476,0.951-0.915,0.951c-0.512,0-0.949-0.329-0.949-0.951L1106.111,599.677L1106.111,599.677z"/>
<path fill="#FFFFFF" d="M1116.428,602.896c0.366,4.312,3.186,7.494,7.393,7.494c2.117,0,4.462-0.654,6.181-2.305
	c0.329-0.292,0.512-0.4,0.842-0.4c0.585,0,0.914,0.4,0.914,0.879c0,0.257-0.073,0.55-0.256,0.77
	c-1.792,1.975-4.755,2.926-7.681,2.926c-5.93,0-9.327-4.86-9.327-10.312c0-5.486,3.219-10.241,9.144-10.241
	c5.893,0,8.998,4.646,8.998,10.095c0,0.695-0.329,1.102-0.951,1.102h-15.253L1116.428,602.896L1116.428,602.896z M1116.428,600.993
	h14.338c-0.328-4.279-2.927-7.388-7.133-7.388C1119.5,593.605,1116.757,596.714,1116.428,600.993z"/>
<path fill="#FFFFFF" d="M1139.253,592.947c0-0.622,0.476-0.951,0.951-0.951s0.95,0.329,0.95,0.951v2.229
	c1.313-2.229,3.729-3.475,6.397-3.475c4.828,0,8.119,2.89,8.119,8.34v11.118c0,0.622-0.512,0.951-0.947,0.951
	c-0.479,0-0.95-0.329-0.95-0.951v-11.118c0-3.987-2.345-6.438-6.222-6.438c-3.475,0-6.397,2.89-6.397,7.567v9.984
	c0,0.549-0.402,0.951-0.95,0.951c-0.513,0-0.951-0.402-0.951-0.951V592.947z"/>
<path fill="#FFFFFF" d="M1164.017,592.143v-5.633c0-0.549,0.438-0.951,0.95-0.951c0.549,0,0.951,0.402,0.951,0.951v5.633h4.719
	c0.512,0,0.914,0.402,0.914,0.951c0,0.548-0.402,0.95-0.914,0.95h-4.719v12.838c0,1.756,0.805,3.365,2.816,3.365
	c0.729,0,1.098-0.183,1.535-0.329c0.326-0.109,0.55-0.146,0.692-0.146c0.512,0,0.95,0.256,0.95,0.947
	c0,0.402-0.329,0.771-0.694,0.951c-0.512,0.256-1.5,0.438-2.483,0.438c-3.584,0-4.722-2.271-4.722-5.12v-12.948h-2.521
	c-0.549,0-0.95-0.402-0.95-0.95c0-0.549,0.401-0.951,0.95-0.951L1164.017,592.143L1164.017,592.143z"/>
<path fill="#FFFFFF" d="M875.558,611.161c0,0.549-0.399,0.951-0.95,0.951c-0.549,0-0.948-0.402-0.948-0.951v-2.67
	c-1.463,2.268-3.877,3.768-7.136,3.768c-5.889,0-9.144-4.755-9.144-10.204c0-5.446,3.255-10.352,9.144-10.352
	c3.259,0,5.673,1.536,7.136,3.841v-9.394c0-0.622,0.477-0.951,0.948-0.951c0.438,0,0.95,0.329,0.95,0.951V611.161z M873.655,601.688
	c0-4.604-2.78-8.079-7.134-8.079c-4.428,0-7.24,3.653-7.24,8.445c0,4.791,2.812,8.339,7.24,8.339c4.354,0,7.134-3.512,7.134-8.083
	V601.688z"/>
<path fill="#FFFFFF" d="M947.91,611.161c0,0.549-0.402,0.951-0.951,0.951c-0.548,0-0.95-0.402-0.95-0.951v-2.67
	c-1.463,2.268-3.877,3.768-7.133,3.768c-5.889,0-9.144-4.755-9.144-10.204c0-5.446,3.255-10.352,9.144-10.352
	c3.256,0,5.67,1.536,7.133,3.841v-9.394c0-0.622,0.479-0.951,0.95-0.951c0.439,0,0.951,0.329,0.951,0.951V611.161z M946.008,601.688
	c0-4.604-2.779-8.079-7.133-8.079c-4.426,0-7.241,3.653-7.241,8.445c0,4.791,2.815,8.339,7.241,8.339
	c4.354,0,7.133-3.512,7.133-8.083V601.688z"/>
<g>
	<path fill="#FFFFFF" d="M905.42,610.467c-4.426,0-7.241-3.548-7.241-8.339c0-4.792,2.815-8.446,7.241-8.446c0,0,0,0,0.001,0v-1.903
		c-5.889,0-9.144,4.903-9.144,10.352c0,5.449,3.255,10.204,9.144,10.204L905.42,610.467L905.42,610.467z"/>
	<path fill="#FFFFFF" d="M905.395,610.467c4.426,0,7.24-3.548,7.24-8.339c0-4.792-2.814-8.446-7.24-8.446c0,0,0,0-0.002,0v-1.903
		c5.89,0,9.145,4.903,9.145,10.352c0,5.449-3.255,10.204-9.145,10.204L905.395,610.467L905.395,610.467z"/>
</g>
<path fill="#FFFFFF" d="M1010.241,592.764c0-0.549,0.401-0.951,0.951-0.951c0.548,0,0.95,0.402,0.95,0.951v2.67
	c1.463-2.268,3.877-3.768,7.133-3.768c5.889,0,9.144,4.755,9.144,10.204s-3.255,10.352-9.144,10.352
	c-3.256,0-5.67-1.536-7.133-3.841v11.376c0,0.622-0.479,0.951-0.95,0.951c-0.439,0-0.951-0.329-0.951-0.951V592.764
	L1010.241,592.764z M1012.145,602.237c0,4.604,2.779,8.082,7.135,8.082c4.426,0,7.238-3.656,7.238-8.448
	c0-4.791-2.812-8.339-7.238-8.339c-4.354,0-7.135,3.512-7.135,8.083V602.237L1012.145,602.237z"/>
</svg>
